<?xml version="1.0" encoding="UTF-8"?>
<svg xmlns="http://www.w3.org/2000/svg" xmlns:xlink="http://www.w3.org/1999/xlink" width="807pt" height="497.8pt" viewBox="0 0 807 497.8" version="1.1">
<defs>
<clipPath id="clip1">
  <path d="M 624 456 L 756 456 L 756 497.800781 L 624 497.800781 Z M 624 456 "/>
</clipPath>
</defs>
<g id="surface1">
<path style="fill-rule:evenodd;fill:rgb(100%,100%,100%);fill-opacity:1;stroke-width:20.001;stroke-linecap:butt;stroke-linejoin:round;stroke:rgb(12.939453%,12.156677%,12.156677%);stroke-opacity:1;stroke-miterlimit:4;" d="M 4847.148438 1442.492188 C 4847.148438 1881.28125 4491.445313 2236.984375 4052.65625 2236.984375 C 3613.867188 2236.984375 3258.125 1881.28125 3258.125 1442.492188 C 3258.125 1003.703125 3613.867188 648.039063 4052.65625 648.039063 C 4491.445313 648.039063 4847.148438 1003.703125 4847.148438 1442.492188 Z M 4847.148438 1442.492188 " transform="matrix(0.1,0,0,-0.1,0,497.8)"/>
<path style=" stroke:none;fill-rule:evenodd;fill:rgb(0%,0%,0%);fill-opacity:1;" d="M 482.796875 353.550781 C 482.796875 310.730469 448.085938 276.015625 405.265625 276.015625 C 362.445313 276.015625 327.730469 310.730469 327.730469 353.550781 C 327.730469 396.371094 362.445313 431.085938 405.265625 431.085938 C 448.085938 431.085938 482.796875 396.371094 482.796875 353.550781 Z M 482.796875 353.550781 "/>
<path style=" stroke:none;fill-rule:evenodd;fill:rgb(100%,100%,100%);fill-opacity:1;" d="M 371.710938 309.96875 C 371.414063 307.898438 370.164063 306.160156 368.253906 305.289063 C 366.328125 304.421875 364.101563 304.742188 362.410156 305.941406 C 362.269531 306.046875 362.144531 306.160156 362.011719 306.265625 C 362.289063 305.304688 362.378906 304.339844 362.140625 303.359375 C 361.90625 302.402344 361.40625 301.519531 360.699219 300.835938 C 359.265625 299.429688 357.085938 298.96875 355.203125 299.671875 C 354.316406 300.003906 353.527344 300.570313 352.9375 301.308594 C 352.601563 301.730469 352.265625 302.148438 351.929688 302.570313 C 350.171875 304.765625 348.414063 306.964844 346.660156 309.152344 C 345.152344 311.035156 343.644531 312.921875 342.136719 314.804688 C 342.035156 314.929688 341.9375 315.050781 341.839844 315.175781 C 341.828125 315.183594 342.03125 315.339844 342.046875 315.347656 C 342.632813 315.816406 343.214844 316.285156 343.800781 316.753906 C 346.011719 318.523438 348.226563 320.296875 350.441406 322.070313 C 352.628906 323.824219 354.820313 325.578125 357.015625 327.335938 C 357.574219 327.78125 358.128906 328.226563 358.691406 328.675781 C 358.714844 328.695313 358.84375 328.824219 358.867188 328.796875 C 358.976563 328.65625 359.089844 328.519531 359.199219 328.382813 C 360.703125 326.503906 362.203125 324.628906 363.710938 322.746094 C 365.511719 320.496094 367.316406 318.242188 369.117188 315.992188 C 370.050781 314.828125 371.078125 313.734375 371.519531 312.277344 C 371.746094 311.527344 371.785156 310.742188 371.710938 309.96875 Z M 352.304688 316.320313 C 351.390625 315.589844 350.480469 314.859375 349.570313 314.128906 C 349.21875 313.851563 348.871094 313.570313 348.523438 313.296875 C 348.515625 313.285156 348.882813 312.839844 348.910156 312.804688 C 350.605469 310.683594 352.304688 308.5625 354.003906 306.441406 C 354.449219 305.882813 354.851563 305.285156 355.539063 305.003906 C 356.480469 304.613281 357.578125 304.863281 358.265625 305.613281 C 358.8125 306.21875 358.996094 307.046875 358.820313 307.839844 C 358.617188 308.539063 358.117188 309.054688 357.671875 309.613281 C 356.777344 310.730469 355.882813 311.847656 354.988281 312.964844 C 354.09375 314.085938 353.199219 315.203125 352.304688 316.320313 Z M 365.773438 313.710938 C 365.199219 314.425781 364.621094 315.148438 364.046875 315.867188 C 362.464844 317.84375 360.878906 319.824219 359.289063 321.800781 C 359.289063 321.808594 359.246094 321.878906 359.234375 321.867188 C 359.152344 321.800781 359.070313 321.738281 358.988281 321.671875 C 358.558594 321.324219 358.128906 320.984375 357.695313 320.636719 C 356.949219 320.039063 356.203125 319.441406 355.453125 318.84375 C 356.890625 317.050781 358.328125 315.253906 359.765625 313.464844 C 360.464844 312.589844 361.164063 311.714844 361.863281 310.839844 C 362.363281 310.214844 362.996094 309.765625 363.828125 309.742188 C 364.828125 309.710938 365.699219 310.296875 366.121094 311.175781 C 366.476563 312.035156 366.355469 312.980469 365.773438 313.710938 Z M 365.773438 313.710938 "/>
<path style=" stroke:none;fill-rule:evenodd;fill:rgb(100%,100%,100%);fill-opacity:1;" d="M 453.722656 353.550781 C 453.722656 326.785156 432.027344 305.09375 405.265625 305.09375 C 378.496094 305.09375 356.804688 326.785156 356.804688 353.550781 C 356.804688 380.3125 378.496094 402.007813 405.265625 402.007813 C 432.027344 402.007813 453.722656 380.3125 453.722656 353.550781 Z M 453.722656 353.550781 "/>
<path style=" stroke:none;fill-rule:evenodd;fill:rgb(0%,58.789063%,79.6875%);fill-opacity:1;" d="M 405.261719 307.546875 C 380.152344 308.199219 359.914063 328.4375 359.261719 353.550781 L 405.261719 353.550781 Z M 405.261719 307.546875 "/>
<path style=" stroke:none;fill-rule:evenodd;fill:rgb(0%,58.789063%,79.6875%);fill-opacity:1;" d="M 405.261719 399.554688 C 430.378906 398.898438 450.613281 378.664063 451.269531 353.550781 L 405.261719 353.550781 Z M 405.261719 399.554688 "/>
<path style=" stroke:none;fill-rule:evenodd;fill:rgb(100%,100%,100%);fill-opacity:1;" d="M 456.953125 300.519531 L 452.914063 296.769531 L 439.808594 313.992188 L 443.847656 317.742188 L 458.222656 311.148438 L 448.644531 323.734375 L 451.421875 328.496094 L 471.09375 319.46875 L 468.316406 314.710938 L 456.964844 319.914063 L 465.035156 309.316406 L 461.496094 304.902344 L 449.390625 310.460938 Z M 456.953125 300.519531 "/>
<path style=" stroke:none;fill-rule:evenodd;fill:rgb(100%,100%,100%);fill-opacity:1;" d="M 398.132813 287.320313 L 403.246094 301.859375 L 407.285156 301.859375 L 412.398438 287.320313 L 412.9375 301.859375 L 418.589844 302.671875 L 417.78125 280.859375 L 410.515625 280.050781 L 405.265625 295.398438 L 400.011719 280.050781 L 392.742188 280.859375 L 391.9375 302.671875 L 397.59375 301.859375 Z M 398.132813 287.320313 "/>
<path style="fill-rule:evenodd;fill:rgb(8.227539%,8.616638%,8.616638%);fill-opacity:1;stroke-width:14.173;stroke-linecap:butt;stroke-linejoin:miter;stroke:rgb(92.576599%,92.576599%,92.576599%);stroke-opacity:1;stroke-miterlimit:4;" d="M 4029.414063 2345.578125 C 3995.546875 2312.921875 3949.804688 2300.8125 3904.53125 2292.296875 C 3886.523438 2288.898438 3826.210938 2280.460938 3813.945313 2267.453125 C 3783.945313 2235.695313 3808.59375 2127.84375 3824.960938 2089.171875 C 3827.1875 2085.460938 3828.984375 2081.515625 3830.273438 2077.257813 C 3832.617188 2072.6875 3836.992188 2066.007813 3839.6875 2062.53125 L 3848.828125 2051.242188 C 3853.242188 2045.773438 3857.539063 2040.578125 3862.304688 2035.382813 C 3896.757813 1997.609375 3898.046875 1936.046875 3848.710938 1909.210938 C 3833.671875 1901.046875 3816.40625 1900.890625 3801.914063 1907.960938 C 3786.445313 1913.585938 3757.382813 1921.398438 3735.976563 1929.367188 C 3720.585938 1932.21875 3706.640625 1942.023438 3699.21875 1957.101563 L 3692.304688 1971.085938 C 3691.015625 1973.078125 3689.960938 1974.992188 3688.945313 1977.21875 L 3667.304688 2024.601563 C 3666.40625 2026.476563 3665.78125 2028.15625 3665.117188 2030.148438 C 3645.117188 2091.945313 3632.539063 2156.867188 3618.632813 2220.8125 C 3600.351563 2213.585938 3586.054688 2201.984375 3565.390625 2186.007813 C 3537.34375 2164.289063 3511.523438 2148.9375 3476.40625 2140.851563 C 3450.039063 2134.796875 3423.554688 2150.1875 3415.742188 2176.125 C 3408.359375 2200.734375 3407.617188 2226.007813 3414.53125 2250.851563 C 3428.828125 2302.023438 3471.757813 2338.703125 3514.492188 2368.78125 C 3503.710938 2372.84375 3494.882813 2380.421875 3488.789063 2391.007813 C 3457.8125 2444.71875 3454.726563 2593.78125 3452.617188 2656.4375 C 3451.640625 2685.109375 3450.898438 2713.78125 3450.273438 2742.53125 C 3440.78125 2731.476563 3429.53125 2721.671875 3416.210938 2713.585938 C 3349.921875 2673.3125 3256.914063 2693.703125 3185.78125 2709.210938 C 3159.375 2714.992188 3141.992188 2740.226563 3146.015625 2767.023438 L 3146.015625 2767.0625 C 3130.742188 2759.328125 3114.53125 2753.703125 3097.421875 2750.695313 C 3033.046875 2739.210938 2974.6875 2768.273438 2928.242188 2810.851563 C 2914.53125 2823.351563 2908.945313 2840.773438 2912.617188 2858.898438 C 2914.453125 2867.960938 2916.796875 2876.59375 2919.804688 2884.953125 C 2905.273438 2878.703125 2890.117188 2873.976563 2874.375 2871.046875 C 2825.195313 2861.867188 2777.265625 2871.867188 2733.59375 2895.460938 C 2716.5625 2904.640625 2706.640625 2921.28125 2706.640625 2940.617188 C 2706.640625 2955.734375 2707.734375 2968.078125 2709.960938 2978.78125 C 2666.289063 2965.578125 2618.398438 2970.851563 2567.460938 3003.859375 C 2537.578125 3023.234375 2515.234375 3051.554688 2515.898438 3088.742188 C 2515.976563 3093.351563 2516.367188 3097.84375 2517.03125 3102.101563 C 2486.09375 3090.382813 2453.164063 3085.226563 2420.703125 3092.765625 C 2358.710938 3107.21875 2325.195313 3160.578125 2308.476563 3218.117188 C 2305.15625 3229.5625 2305.664063 3240.8125 2309.921875 3251.28125 C 2292.96875 3248.703125 2275.390625 3247.960938 2257.34375 3249.328125 C 2245.898438 3250.1875 2236.015625 3254.210938 2227.773438 3261.4375 C 2227.734375 3261.203125 2227.695313 3260.890625 2227.65625 3260.695313 L 2223.984375 3242.21875 C 2219.726563 3220.8125 2203.4375 3205.03125 2181.875 3201.554688 C 2110.78125 3190.03125 2033.984375 3187.921875 1962.109375 3188.234375 C 1871.367188 3188.625 1780.039063 3193.898438 1689.765625 3202.960938 C 1613.242188 3210.65625 1536.601563 3221.203125 1461.09375 3235.890625 C 1395.390625 3248.703125 1328.046875 3264.835938 1265.195313 3288.117188 C 1213.515625 3307.257813 1156.09375 3327.492188 1110.78125 3359.484375 C 1082.226563 3379.640625 1057.8125 3404.5625 1033.984375 3429.992188 C 1021.484375 3443.351563 1017.109375 3461.125 1021.796875 3478.195313 C 1006.015625 3479.367188 990.3125 3480.851563 974.84375 3482.804688 C 891.875 3493.15625 813.90625 3542.492188 746.679688 3589.601563 C 733.164063 3599.09375 722.070313 3607.101563 710.195313 3619.015625 C 709.804688 3619.40625 709.375 3619.835938 708.984375 3620.226563 C 703.476563 3623.46875 698.789063 3627.726563 695.039063 3632.609375 C 691.328125 3637.257813 688.476563 3642.53125 686.601563 3648.351563 C 685.117188 3651.359375 683.320313 3654.40625 681.71875 3657.21875 C 673.164063 3672.453125 672.695313 3689.601563 680.351563 3704.992188 C 577.695313 3723.742188 430.390625 3787.0625 409.492188 3899.914063 C 406.640625 3915.460938 410.390625 3929.992188 420.546875 3942.101563 C 423.242188 3945.382813 426.210938 3948.195313 429.375 3950.617188 C 342.304688 3976.867188 267.734375 4025.1875 248.203125 4115.148438 C 244.765625 4130.851563 248.320313 4145.773438 258.398438 4158.273438 C 262.070313 4162.84375 266.289063 4166.671875 270.898438 4169.601563 C 212.34375 4199.445313 139.648438 4253.546875 119.023438 4315.851563 C 114.140625 4330.65625 115.78125 4345.304688 123.828125 4358.585938 C 131.875 4371.90625 144.101563 4380.148438 159.453125 4382.6875 C 187.96875 4387.335938 222.773438 4387.726563 251.796875 4388.742188 C 253.710938 4388.78125 255.742188 4388.898438 257.734375 4388.976563 C 249.648438 4391.007813 241.914063 4393.273438 234.6875 4395.851563 C 138.984375 4429.71875 0.78125 4514.796875 10.429688 4631.710938 C 12.65625 4658.351563 34.6875 4678.742188 61.367188 4678.859375 C 255.15625 4679.796875 448.945313 4682.882813 642.8125 4683.585938 C 773.203125 4684.054688 903.710938 4684.210938 1034.140625 4682.0625 C 1079.648438 4681.28125 1125.390625 4680.382813 1170.78125 4677.960938 C 1193.085938 4676.789063 1232.96875 4675.460938 1252.890625 4665.851563 C 1258.554688 4663.15625 1262.96875 4659.953125 1267.34375 4655.460938 L 1299.140625 4622.84375 C 1298.4375 4634.40625 1301.757813 4645.617188 1308.945313 4655.578125 C 1318.867188 4669.367188 1333.4375 4676.867188 1350.390625 4676.90625 L 2069.335938 4678.664063 C 2084.140625 4678.703125 2096.953125 4673.15625 2107.03125 4662.257813 C 2110.039063 4659.054688 2112.96875 4655.773438 2115.78125 4652.453125 C 2122.03125 4672.84375 2140.585938 4687.609375 2162.8125 4688.507813 C 2279.453125 4693.15625 2397.460938 4694.601563 2514.140625 4695.304688 C 2588.984375 4695.734375 2664.0625 4695.695313 2738.828125 4693.351563 C 2767.34375 4692.453125 2796.015625 4691.28125 2824.453125 4688.859375 C 2843.554688 4687.21875 2866.484375 4685.109375 2884.726563 4679.210938 C 2948.554688 4658.507813 3021.875 4623.859375 3052.226563 4560.03125 C 3077.734375 4506.554688 3077.773438 4460.617188 3063.828125 4404.40625 C 3058.476563 4382.84375 3051.09375 4359.875 3050.117188 4337.53125 C 3054.140625 4323.117188 3083.59375 4291.867188 3093.476563 4281.984375 C 3126.054688 4249.289063 3163.359375 4219.09375 3200.117188 4191.164063 C 3240.664063 4160.304688 3282.773438 4130.851563 3325.585938 4103.234375 C 3341.210938 4093.117188 3357.148438 4083.15625 3373.28125 4073.78125 C 3374.882813 4072.84375 3376.640625 4071.789063 3378.476563 4070.734375 C 3416.210938 4094.835938 3456.132813 4129.40625 3487.734375 4156.359375 C 3528.046875 4190.695313 3567.65625 4226.59375 3608.984375 4259.601563 C 3621.054688 4269.289063 3638.085938 4283.351563 3643.867188 4298.351563 C 3647.265625 4307.296875 3648.671875 4318.546875 3649.84375 4327.960938 C 3652.34375 4348.351563 3654.335938 4368.625 3657.382813 4388.976563 L 3716.992188 4785.851563 C 3723.632813 4834.757813 3739.453125 4881.710938 3777.695313 4915.109375 C 3815.15625 4947.765625 3864.0625 4958.46875 3912.226563 4963.039063 C 3971.328125 4968.664063 4033.710938 4966.828125 4093.242188 4966.984375 C 4099.921875 4966.984375 4106.601563 4967.21875 4113.28125 4967.53125 C 4163.242188 4969.835938 4222.734375 4978.078125 4264.53125 4944.09375 C 4267.109375 4941.984375 4269.53125 4939.835938 4271.796875 4937.53125 C 4277.8125 4940.851563 4284.609375 4942.960938 4291.953125 4943.703125 C 4347.65625 4949.171875 4401.523438 4936.828125 4444.257813 4899.367188 C 4531.445313 4822.921875 4538.632813 4671.710938 4524.296875 4564.210938 C 4521.328125 4541.90625 4505.117188 4524.757813 4483.007813 4520.578125 C 4460.898438 4516.359375 4439.53125 4526.359375 4428.59375 4546.007813 C 4427.304688 4548.351563 4423.945313 4554.601563 4420.15625 4561.554688 C 4397.03125 4546.28125 4367.695313 4541.867188 4340.742188 4538.273438 C 4327.96875 4536.554688 4315.039063 4534.992188 4302.226563 4532.960938 C 4312.539063 4482.414063 4332.34375 4430.148438 4347.773438 4383.78125 C 4369.921875 4317.453125 4376.71875 4310.382813 4432.773438 4272.960938 C 4479.101563 4241.984375 4525.390625 4203.351563 4569.335938 4168.78125 C 4598.4375 4145.890625 4627.578125 4122.921875 4657.226563 4100.734375 C 4666.601563 4093.703125 4681.757813 4081.789063 4694.648438 4073.390625 C 4771.054688 4108.15625 4958.515625 4262.140625 5022.65625 4325.1875 C 5021.445313 4337.296875 5017.109375 4355.773438 5015.46875 4363.625 C 5009.101563 4393.859375 5003.007813 4423.742188 5001.367188 4454.71875 C 4991.171875 4643.351563 5157.539063 4688.195313 5313.867188 4691.359375 C 5409.53125 4693.273438 5505.195313 4695.539063 5600.859375 4695.96875 C 5703.28125 4696.4375 5807.148438 4695.421875 5909.296875 4687.335938 C 5930.976563 4685.617188 5948.554688 4670.851563 5954.453125 4650.890625 C 5958.007813 4655.109375 5961.71875 4659.210938 5965.585938 4663.234375 C 5975.625 4673.78125 5988.203125 4679.09375 6002.773438 4679.054688 L 6720.585938 4677.101563 C 6737.695313 4677.0625 6752.421875 4669.445313 6762.304688 4655.460938 C 6767.34375 4648.351563 6770.390625 4640.65625 6771.523438 4632.648438 C 6788.789063 4650.421875 6808.671875 4665.304688 6834.84375 4672.960938 C 6839.726563 4674.445313 6844.023438 4675.03125 6849.101563 4675.109375 L 8011.757813 4679.875 C 8026.015625 4679.914063 8038.28125 4674.835938 8048.359375 4664.71875 C 8058.398438 4654.601563 8063.4375 4642.296875 8063.28125 4628.039063 C 8062.109375 4504.09375 7919.609375 4417.257813 7801.523438 4387.765625 L 7901.132813 4387.6875 C 7916.796875 4387.6875 7930.273438 4381.398438 7940.390625 4369.40625 C 7950.46875 4357.414063 7954.335938 4343.078125 7951.640625 4327.609375 C 7939.960938 4259.953125 7883.046875 4220.539063 7827.617188 4188.585938 C 7815.273438 4181.515625 7803.046875 4175.1875 7790.78125 4169.601563 C 7798.164063 4166.59375 7804.765625 4161.671875 7810.3125 4155.03125 C 7820.351563 4142.960938 7824.21875 4128.585938 7821.445313 4113.117188 C 7817.734375 4092.335938 7810.390625 4072.609375 7799.492188 4054.484375 C 7767.8125 4002.023438 7709.921875 3970.1875 7644.804688 3950.695313 C 7655.15625 3941.398438 7661.640625 3927.960938 7661.835938 3913.078125 C 7663.007813 3789.40625 7492.8125 3725.578125 7392.96875 3707.257813 C 7390.273438 3706.710938 7387.460938 3706.28125 7384.726563 3705.851563 C 7387.03125 3702.101563 7388.984375 3698.039063 7390.390625 3693.546875 C 7395.234375 3678.46875 7393.28125 3663.585938 7384.765625 3650.265625 C 7355.039063 3603.78125 7328.90625 3592.726563 7284.101563 3563.898438 C 7189.492188 3503.117188 7125.273438 3484.953125 7049.84375 3480.03125 C 7051.328125 3476.789063 7052.460938 3473.273438 7053.28125 3469.601563 C 7057.03125 3452.296875 7052.382813 3435.695313 7040.078125 3422.921875 C 6911.015625 3289.210938 6636.640625 3234.953125 6458.945313 3211.945313 C 6352.890625 3198.195313 6245.234375 3190.773438 6138.359375 3189.367188 C 6055.78125 3188.3125 5968.28125 3190.109375 5886.484375 3201.398438 C 5864.335938 3204.484375 5847.34375 3220.617188 5843.125 3242.609375 C 5841.71875 3249.835938 5841.015625 3257.101563 5840.976563 3264.523438 C 5825.859375 3255.109375 5808.554688 3248.78125 5788.710938 3246.828125 C 5780.859375 3246.046875 5773.007813 3246.046875 5765.273438 3246.710938 C 5768.046875 3237.414063 5768.007813 3227.609375 5764.960938 3217.648438 C 5734.375 3115.695313 5643.085938 3075.148438 5549.53125 3104.210938 C 5550.390625 3101.476563 5551.210938 3098.703125 5551.953125 3095.851563 C 5554.21875 3087.023438 5555.703125 3077.960938 5556.367188 3068.898438 C 5557.773438 3050.265625 5549.804688 3033.585938 5534.492188 3022.921875 C 5481.210938 2985.890625 5419.53125 2964.09375 5356.5625 2982.960938 C 5361.210938 2970.304688 5364.53125 2957.21875 5365.859375 2943.546875 C 5368.046875 2920.851563 5355.78125 2900.265625 5334.882813 2891.28125 C 5275.351563 2865.96875 5213.125 2857.101563 5153.59375 2880.03125 C 5155.664063 2874.289063 5157.34375 2868.351563 5158.59375 2862.257813 C 5162.265625 2844.640625 5157.148438 2827.882813 5144.414063 2815.304688 C 5099.53125 2771.007813 5042.109375 2739.367188 4977.265625 2749.484375 C 4959.335938 2752.257813 4942.421875 2757.960938 4926.445313 2766.007813 C 4924.414063 2752.960938 4917.265625 2741.007813 4905.859375 2732.6875 C 4864.21875 2702.375 4799.726563 2686.085938 4748.789063 2688.625 C 4686.328125 2691.789063 4642.03125 2718.742188 4613.59375 2759.71875 C 4612.773438 2709.445313 4611.71875 2659.171875 4610.195313 2608.9375 C 4609.101563 2573.46875 4609.0625 2537.921875 4606.40625 2502.53125 C 4603.046875 2457.492188 4598.789063 2400.734375 4551.289063 2381.4375 C 4547.226563 2379.132813 4542.96875 2377.414063 4538.554688 2376.28125 C 4552.03125 2367.101563 4565.390625 2358.585938 4575.859375 2351.515625 C 4624.492188 2318.703125 4679.648438 2278.625 4696.054688 2219.132813 C 4702.890625 2194.328125 4702.109375 2169.015625 4694.648438 2144.40625 C 4686.757813 2118.507813 4660.234375 2103.195313 4633.867188 2109.328125 C 4598.789063 2117.53125 4573.007813 2132.921875 4545.039063 2154.71875 C 4524.414063 2170.8125 4510.15625 2182.453125 4491.875 2189.71875 C 4477.8125 2125.773438 4465.039063 2060.890625 4444.84375 1999.171875 C 4444.140625 1997.140625 4443.515625 1995.539063 4442.65625 1993.625 L 4420.859375 1946.28125 C 4419.804688 1944.09375 4418.710938 1942.140625 4417.460938 1940.1875 L 4410.546875 1926.242188 C 4403.046875 1911.203125 4389.101563 1901.4375 4373.710938 1898.664063 C 4352.304688 1890.734375 4323.203125 1882.960938 4307.695313 1877.414063 C 4293.164063 1870.382813 4275.9375 1870.578125 4260.898438 1878.78125 C 4211.640625 1905.773438 4213.125 1967.335938 4247.695313 2004.992188 C 4252.460938 2010.1875 4256.757813 2015.34375 4261.171875 2020.8125 L 4270.3125 2032.101563 C 4273.046875 2035.539063 4277.460938 2042.21875 4279.84375 2046.789063 C 4281.132813 2051.046875 4282.890625 2055.03125 4285.195313 2058.703125 C 4301.640625 2097.335938 4326.601563 2205.109375 4296.71875 2236.945313 C 4284.453125 2249.992188 4224.140625 2258.585938 4206.171875 2262.0625 C 4158.90625 2271.085938 4111.09375 2284.015625 4076.953125 2320.304688 C 4070.390625 2327.21875 4066.09375 2335.421875 4064.101563 2344.054688 C 4054.804688 2342.960938 4045.273438 2343.039063 4035.46875 2344.523438 C 4033.4375 2344.796875 4031.40625 2345.1875 4029.414063 2345.578125 Z M 5861.328125 4299.054688 C 5859.492188 4295.539063 5857.578125 4292.257813 5855.546875 4289.171875 C 5858.90625 4288.664063 5862.265625 4288.078125 5865.625 4287.453125 C 5863.984375 4291.203125 5862.539063 4295.03125 5861.328125 4299.054688 Z M 5865.9375 4366.710938 C 5864.53125 4366.710938 5863.164063 4366.828125 5861.796875 4366.867188 C 5862.148438 4366.398438 5862.460938 4365.890625 5862.8125 4365.460938 C 5863.242188 4364.875 5863.671875 4364.289063 5864.0625 4363.664063 C 5864.648438 4364.71875 5865.273438 4365.734375 5865.9375 4366.710938 Z M 6462.1875 4354.796875 L 6464.960938 4360.304688 C 6468.28125 4366.867188 6472.695313 4372.453125 6477.890625 4376.828125 C 6469.84375 4374.992188 6461.71875 4373.351563 6453.59375 4371.945313 C 6457.65625 4366.710938 6460.507813 4360.96875 6462.1875 4354.796875 Z M 2301.210938 4149.640625 C 2302.65625 4149.875 2304.0625 4150.03125 2305.46875 4150.226563 C 2304.492188 4151.28125 2303.554688 4152.453125 2302.65625 4153.625 C 2302.1875 4152.296875 2301.71875 4150.96875 2301.210938 4149.640625 Z M 1776.015625 3984.523438 C 1776.210938 3982.960938 1776.445313 3981.4375 1776.640625 3979.914063 C 1777.109375 3976.59375 1777.304688 3973.351563 1777.148438 3970.1875 C 1780.390625 3973.234375 1784.023438 3975.851563 1788.007813 3977.960938 C 1783.90625 3980.03125 1779.921875 3982.140625 1776.015625 3984.523438 Z M 5772.226563 4153.507813 C 5771.953125 4153.195313 5771.640625 4152.882813 5771.40625 4152.53125 C 5771.835938 4152.492188 5772.265625 4152.414063 5772.695313 4152.335938 C 5772.539063 4152.726563 5772.382813 4153.117188 5772.226563 4153.507813 Z M 6296.914063 3989.09375 C 6291.914063 3986.007813 6286.796875 3983.195313 6281.484375 3980.617188 C 6286.757813 3978.234375 6291.523438 3974.914063 6295.742188 3970.734375 C 6295.664063 3972.53125 6295.703125 3974.484375 6295.78125 3976.398438 C 6296.09375 3980.695313 6296.484375 3984.914063 6296.914063 3989.09375 Z M 1619.257813 4367.960938 C 1611.71875 4368.585938 1604.414063 4369.328125 1597.304688 4370.226563 C 1600.46875 4366.710938 1603.164063 4362.6875 1605.390625 4358.15625 C 1607.1875 4354.523438 1609.0625 4350.8125 1611.054688 4347.101563 C 1612.226563 4354.71875 1615.078125 4361.828125 1619.257813 4367.960938 Z M 2207.148438 4364.328125 C 2207.1875 4364.367188 2207.226563 4364.445313 2207.265625 4364.484375 C 2207.304688 4364.523438 2207.304688 4364.5625 2207.34375 4364.601563 C 2207.1875 4364.601563 2207.03125 4364.5625 2206.875 4364.5625 C 2206.992188 4364.484375 2207.03125 4364.40625 2207.148438 4364.328125 Z M 5680.078125 4035.539063 C 5676.71875 4033.46875 5673.085938 4031.789063 5669.140625 4030.460938 C 5674.296875 4028.78125 5679.414063 4026.90625 5684.492188 4024.875 C 5682.890625 4028.351563 5681.445313 4031.945313 5680.078125 4035.539063 Z M 5913.867188 3429.210938 C 5915.078125 3427.6875 5916.171875 3426.085938 5917.148438 3424.484375 C 5918.164063 3425.578125 5919.140625 3426.710938 5920.195313 3427.804688 C 5918.085938 3428.234375 5915.976563 3428.703125 5913.867188 3429.210938 Z M 5579.140625 3895.773438 C 5577.890625 3898.46875 5576.640625 3901.164063 5575.507813 3903.859375 C 5574.375 3902.257813 5573.203125 3900.695313 5571.992188 3899.171875 C 5574.414063 3898.078125 5576.796875 3896.945313 5579.140625 3895.773438 Z M 2484.726563 3891.085938 C 2491.445313 3894.367188 2498.28125 3897.296875 2505.46875 3899.640625 C 2501.601563 3902.6875 2497.890625 3905.851563 2494.53125 3909.328125 C 2491.5625 3903.234375 2488.242188 3897.101563 2484.726563 3891.085938 Z M 1999.960938 3598.664063 C 2000.703125 3597.296875 2001.445313 3595.851563 2002.1875 3594.523438 C 2003.125 3595.695313 2004.140625 3596.867188 2005.195313 3597.960938 C 2003.4375 3598.195313 2001.640625 3598.390625 1999.960938 3598.664063 Z M 2391.445313 4024.40625 C 2394.101563 4025.34375 2396.757813 4026.242188 2399.414063 4027.101563 C 2397.382813 4028.234375 2395.46875 4029.484375 2393.632813 4030.851563 C 2392.96875 4028.703125 2392.226563 4026.554688 2391.445313 4024.40625 Z M 2148.710938 3427.882813 C 2150.078125 3426.28125 2151.484375 3424.71875 2152.851563 3423.117188 C 2154.023438 3425.148438 2155.351563 3427.101563 2156.796875 3429.015625 C 2154.101563 3428.585938 2151.40625 3428.234375 2148.710938 3427.882813 Z M 2620.546875 3806.125 C 2620.234375 3804.796875 2619.921875 3803.46875 2619.609375 3802.101563 C 2620.742188 3802.609375 2621.875 3803.078125 2623.007813 3803.507813 C 2622.1875 3804.367188 2621.367188 3805.226563 2620.546875 3806.125 Z M 3383.203125 3340.460938 C 3382.148438 3340.851563 3381.09375 3341.359375 3380.039063 3341.828125 C 3380.117188 3340.734375 3380.15625 3339.601563 3380.234375 3338.546875 C 3381.210938 3339.210938 3382.1875 3339.835938 3383.203125 3340.460938 Z M 4691.484375 3338.898438 C 4691.5625 3339.875 4691.601563 3340.851563 4691.640625 3341.867188 C 4690.78125 3341.476563 4689.921875 3341.046875 4689.023438 3340.65625 C 4689.84375 3340.03125 4690.664063 3339.484375 4691.484375 3338.898438 Z M 5329.140625 3705.460938 C 5326.757813 3702.609375 5324.140625 3700.03125 5321.210938 3697.84375 C 5324.882813 3695.851563 5328.398438 3693.78125 5331.914063 3691.59375 C 5330.859375 3696.203125 5329.921875 3700.851563 5329.140625 3705.460938 Z M 2737.890625 3684.210938 C 2740.859375 3686.359375 2743.867188 3688.46875 2746.953125 3690.539063 C 2744.609375 3691.945313 2742.382813 3693.585938 2740.3125 3695.34375 C 2739.609375 3691.632813 2738.789063 3687.921875 2737.890625 3684.210938 Z M 5181.40625 3584.210938 C 5181.09375 3588.703125 5180.898438 3593.234375 5180.898438 3597.765625 C 5177.890625 3595.8125 5174.84375 3594.015625 5171.640625 3592.335938 C 5174.960938 3589.71875 5178.242188 3586.984375 5181.40625 3584.210938 Z M 5034.921875 3519.015625 C 5031.953125 3516.867188 5028.90625 3514.914063 5025.859375 3513.078125 C 5029.375 3510.382813 5032.851563 3507.453125 5036.210938 3504.210938 C 5035.625 3509.289063 5035.195313 3514.210938 5034.921875 3519.015625 Z M 3033.398438 3494.40625 C 3038.28125 3500.148438 3043.4375 3505.65625 3048.710938 3510.734375 C 3043.046875 3513.546875 3037.773438 3516.515625 3032.851563 3519.835938 C 3033.554688 3511.476563 3033.710938 3502.960938 3033.398438 3494.40625 Z M 2891.210938 3586.59375 C 2891.210938 3586.59375 2891.171875 3586.59375 2891.171875 3586.632813 C 2891.171875 3586.59375 2891.171875 3586.59375 2891.171875 3586.554688 Z M 5771.875 4415.695313 C 5757.226563 4405.734375 5742.1875 4396.359375 5727.460938 4388.390625 L 5783.28125 4387.53125 C 5781.523438 4389.757813 5779.921875 4392.140625 5778.476563 4394.71875 C 5774.6875 4401.4375 5772.460938 4408.546875 5771.875 4415.695313 Z M 6520.15625 4388.546875 L 6615.625 4388.46875 C 6610.898438 4392.6875 6606.875 4397.882813 6603.789063 4403.898438 C 6600.78125 4409.757813 6599.023438 4415.8125 6598.28125 4421.90625 C 6573.359375 4408.46875 6547.03125 4397.296875 6520.15625 4388.546875 Z M 1471.71875 4419.757813 C 1471.210938 4415.304688 1470.15625 4410.851563 1468.4375 4406.515625 C 1466.054688 4400.304688 1462.65625 4394.835938 1458.476563 4390.1875 C 1460.703125 4390.148438 1462.96875 4390.109375 1465.195313 4390.03125 C 1485.976563 4389.601563 1506.953125 4389.210938 1527.851563 4388.46875 C 1509.960938 4396.007813 1491.640625 4406.125 1471.71875 4419.757813 Z M 2293.828125 4389.289063 C 2307.34375 4389.875 2320.78125 4390.304688 2334.296875 4390.617188 C 2323.242188 4396.398438 2312.109375 4402.960938 2301.171875 4409.992188 C 2300.390625 4403.703125 2298.359375 4397.492188 2295.117188 4391.554688 C 2294.726563 4390.773438 2294.296875 4390.03125 2293.828125 4389.289063 Z M 2293.828125 4389.289063 " transform="matrix(0.1,0,0,-0.1,0,497.8)"/>
<path style="fill-rule:evenodd;fill:rgb(8.227539%,8.616638%,8.616638%);fill-opacity:1;stroke-width:14.173;stroke-linecap:butt;stroke-linejoin:miter;stroke:rgb(92.576599%,92.576599%,92.576599%);stroke-opacity:1;stroke-miterlimit:4;" d="M 3380.507813 4012.492188 C 3345.078125 4022.726563 2996.171875 4248.703125 2998.710938 4337.335938 C 3000.742188 4405.8125 3044.804688 4456.28125 3005.898438 4538.039063 C 2985.195313 4581.476563 2930.15625 4610.539063 2868.90625 4630.382813 C 2795.78125 4654.054688 2255.234375 4640.8125 2164.84375 4637.21875 C 2160.78125 4573.898438 2311.171875 4451.984375 2383.710938 4424.328125 C 2537.851563 4365.617188 2653.046875 4467.453125 2752.890625 4348.664063 C 2789.804688 4304.757813 2820.78125 4281.671875 2860.273438 4239.5625 C 2977.304688 4114.71875 3421.835938 3729.210938 3438.632813 3684.328125 C 3534.804688 3426.90625 3469.6875 2526.90625 3533.242188 2416.671875 C 3698.242188 2396.164063 3531.328125 2636.28125 3762.109375 2605.8125 C 3807.265625 2513.46875 3757.851563 2482.765625 3813.28125 2451.28125 C 3858.710938 2493.117188 3830.46875 2783.078125 3837.65625 2864.71875 C 3892.34375 2929.914063 4166.875 2940.109375 4258.789063 2862.0625 C 4272.734375 2840.773438 4266.09375 2616.203125 4266.210938 2557.53125 C 4266.289063 2546.515625 4265.9375 2515.65625 4267.03125 2506.398438 L 4284.257813 2451.007813 C 4351.601563 2481.828125 4313.789063 2517.921875 4341.210938 2591.632813 C 4529.726563 2649.367188 4461.445313 2473.585938 4526.09375 2426.203125 C 4533.710938 2433.078125 4548.632813 2418.546875 4555.234375 2506.398438 C 4557.695313 2539.367188 4557.890625 2577.53125 4558.867188 2610.460938 C 4568.90625 2937.335938 4556.328125 3362.921875 4628.984375 3664.5625 C 4649.375 3749.132813 4772.617188 3823.859375 4851.5625 3899.757813 C 5016.5625 4058.46875 5168.828125 4178.898438 5310.3125 4344.875 C 5417.851563 4471.007813 5532.109375 4364.992188 5678.59375 4422.0625 C 5744.023438 4447.53125 5908.359375 4575.851563 5905.273438 4636.164063 C 5728.398438 4650.148438 5495.351563 4643.664063 5314.921875 4640.03125 C 4915.039063 4631.984375 5098.085938 4364.757813 5071.40625 4301.632813 C 5019.0625 4245.460938 4773.046875 4038.703125 4691.5625 4017.84375 C 4667.8125 4018.9375 4470.195313 4186.242188 4404.257813 4230.265625 C 4344.84375 4269.953125 4327.265625 4283.078125 4299.101563 4367.53125 C 4278.515625 4429.289063 4249.84375 4504.601563 4244.765625 4572.648438 C 4306.015625 4591.671875 4371.015625 4586.125 4395.546875 4607.101563 C 4329.6875 4633.703125 4233.789063 4602.375 4171.601563 4643.9375 C 4233.59375 4651.476563 4298.398438 4650.65625 4360.703125 4644.484375 C 4442.304688 4636.4375 4440.976563 4629.210938 4473.4375 4571.007813 C 4491.171875 4704.210938 4472.109375 4909.796875 4296.992188 4892.648438 C 4267.890625 4830.382813 4291.601563 4833.351563 4243.828125 4787.609375 C 4117.8125 4666.789063 4114.53125 4733.390625 4050.234375 4793.117188 C 3996.484375 4842.921875 3986.71875 4805.03125 3921.367188 4836.242188 C 3973.632813 4871.984375 4140.195313 4844.054688 4250.898438 4856.59375 C 4249.84375 4938.78125 4167.34375 4915.8125 4093.359375 4915.65625 C 3882.34375 4915.148438 3787.460938 4923.78125 3767.851563 4778.9375 L 3708.164063 4381.359375 C 3695.390625 4293.78125 3706.640625 4272.023438 3641.015625 4219.5625 C 3570.234375 4162.960938 3453.359375 4050.890625 3380.507813 4012.492188 Z M 3380.507813 4012.492188 " transform="matrix(0.1,0,0,-0.1,0,497.8)"/>
<path style="fill-rule:evenodd;fill:rgb(8.227539%,8.616638%,8.616638%);fill-opacity:1;stroke-width:14.173;stroke-linecap:butt;stroke-linejoin:miter;stroke:rgb(92.576599%,92.576599%,92.576599%);stroke-opacity:1;stroke-miterlimit:4;" d="M 2332.578125 4271.28125 C 2345.976563 4178.46875 2314.882813 4180.773438 2412.734375 4162.335938 L 2424.804688 4071.828125 C 2597.65625 4050.773438 2452.421875 3961.242188 2568.867188 3924.71875 C 2662.734375 3895.265625 2599.257813 3938.117188 2645.390625 3859.054688 C 2670.78125 3815.460938 2694.453125 3824.71875 2758.359375 3818.195313 L 2773.90625 3734.367188 L 2875.351563 3719.640625 L 2905.3125 3635.96875 C 2934.296875 3630.1875 2984.0625 3624.757813 3008.242188 3612.101563 C 3053.828125 3588.351563 3034.492188 3571.945313 3078.632813 3553.546875 C 3173.710938 3513.898438 3169.375 3556.515625 3237.03125 3460.734375 L 3344.335938 3474.171875 C 3364.140625 3434.5625 3363.945313 3402.921875 3405.976563 3386.59375 C 3442.1875 3434.796875 3397.65625 3554.40625 3387.03125 3609.875 C 3368.28125 3707.53125 3335.898438 3715.421875 3278.632813 3767.023438 C 3182.8125 3853.390625 3098.164063 3942.765625 3001.992188 4024.953125 C 2903.476563 4109.210938 2821.171875 4195.578125 2723.203125 4280.695313 C 2638.046875 4354.640625 2663.125 4341.476563 2514.960938 4340.304688 C 2427.304688 4339.601563 2336.71875 4341.710938 2249.53125 4335.382813 C 2261.132813 4296.867188 2288.867188 4291.710938 2332.578125 4271.28125 Z M 2332.578125 4271.28125 " transform="matrix(0.1,0,0,-0.1,0,497.8)"/>
<path style="fill-rule:evenodd;fill:rgb(8.227539%,8.616638%,8.616638%);fill-opacity:1;stroke-width:14.173;stroke-linecap:butt;stroke-linejoin:miter;stroke:rgb(92.576599%,92.576599%,92.576599%);stroke-opacity:1;stroke-miterlimit:4;" d="M 4666.09375 3386.671875 C 4705.3125 3403.3125 4702.890625 3430.03125 4729.140625 3472.023438 C 4831.289063 3469.484375 4803.28125 3435.460938 4874.726563 3507.492188 C 4945.9375 3579.328125 4962.617188 3516.125 5022.851563 3576.046875 C 5057.695313 3610.734375 5018.28125 3601.710938 5080.625 3621.945313 C 5115.390625 3633.195313 5140.039063 3624.953125 5164.257813 3650.382813 C 5241.601563 3731.710938 5114.53125 3691.828125 5289.804688 3738.585938 C 5335.9375 3818.039063 5264.414063 3805.65625 5366.09375 3827.804688 C 5475.15625 3851.59375 5403.164063 3880.03125 5461.835938 3913.703125 C 5528.164063 3951.710938 5526.835938 3879.09375 5554.023438 3998.46875 C 5573.125 4082.296875 5573.710938 4053.039063 5652.851563 4079.132813 L 5655.898438 4163.234375 L 5732.890625 4186.710938 L 5734.375 4274.601563 C 5776.601563 4291.90625 5808.28125 4296.4375 5821.054688 4335.617188 L 5531.640625 4340.1875 C 5356.5625 4338.195313 5426.132813 4347.101563 5234.453125 4178.585938 C 5065.742188 4030.265625 4935.46875 3893.78125 4755.351563 3741.359375 C 4691.5625 3687.414063 4696.640625 3690.8125 4679.804688 3587.804688 C 4669.84375 3526.867188 4633.242188 3434.054688 4666.09375 3386.671875 Z M 4666.09375 3386.671875 " transform="matrix(0.1,0,0,-0.1,0,497.8)"/>
<path style="fill-rule:evenodd;fill:rgb(8.227539%,8.616638%,8.616638%);fill-opacity:1;stroke-width:14.173;stroke-linecap:butt;stroke-linejoin:miter;stroke:rgb(92.576599%,92.576599%,92.576599%);stroke-opacity:1;stroke-miterlimit:4;" d="M 1420.585938 4425.03125 L 1230.585938 4619.601563 C 1183.203125 4642.492188 161.601563 4628.039063 61.601563 4627.53125 C 54.570313 4542.648438 173.945313 4471.789063 251.796875 4444.210938 C 331.640625 4415.96875 533.828125 4423.78125 631.09375 4423.664063 C 884.21875 4423.273438 1171.5625 4410.382813 1420.585938 4425.03125 Z M 1420.585938 4425.03125 " transform="matrix(0.1,0,0,-0.1,0,497.8)"/>
<path style="fill-rule:evenodd;fill:rgb(8.227539%,8.616638%,8.616638%);fill-opacity:1;stroke-width:14.173;stroke-linecap:butt;stroke-linejoin:miter;stroke:rgb(92.576599%,92.576599%,92.576599%);stroke-opacity:1;stroke-miterlimit:4;" d="M 6649.53125 4427.21875 C 6853.90625 4422.101563 7613.828125 4414.445313 7745.9375 4429.5625 C 7855.78125 4442.101563 8010.976563 4524.210938 8011.953125 4628.546875 L 6849.296875 4623.78125 C 6810.390625 4612.335938 6779.921875 4560.851563 6753.4375 4530.851563 C 6720.3125 4493.351563 6673.164063 4461.554688 6649.53125 4427.21875 Z M 6649.53125 4427.21875 " transform="matrix(0.1,0,0,-0.1,0,497.8)"/>
<path style="fill-rule:evenodd;fill:rgb(8.227539%,8.616638%,8.616638%);fill-opacity:1;stroke-width:14.173;stroke-linecap:butt;stroke-linejoin:miter;stroke:rgb(92.576599%,92.576599%,92.576599%);stroke-opacity:1;stroke-miterlimit:4;" d="M 1628.828125 4182.21875 C 1627.03125 4226.789063 1579.960938 4293.351563 1559.296875 4335.578125 C 1410.390625 4344.953125 269.6875 4348.742188 167.734375 4332.023438 C 187.890625 4271.085938 306.289063 4189.523438 404.609375 4181.515625 Z M 1628.828125 4182.21875 " transform="matrix(0.1,0,0,-0.1,0,497.8)"/>
<path style="fill-rule:evenodd;fill:rgb(8.227539%,8.616638%,8.616638%);fill-opacity:1;stroke-width:14.173;stroke-linecap:butt;stroke-linejoin:miter;stroke:rgb(92.576599%,92.576599%,92.576599%);stroke-opacity:1;stroke-miterlimit:4;" d="M 6226.523438 3753.546875 C 6355.46875 3750.265625 7280.46875 3738.78125 7383.710938 3757.726563 C 7478.28125 3775.109375 7611.289063 3830.8125 7610.507813 3912.53125 L 6333.554688 3915.539063 C 6315.117188 3890.617188 6233.710938 3779.210938 6226.523438 3753.546875 Z M 6226.523438 3753.546875 " transform="matrix(0.1,0,0,-0.1,0,497.8)"/>
<path style="fill-rule:evenodd;fill:rgb(8.227539%,8.616638%,8.616638%);fill-opacity:1;stroke-width:14.173;stroke-linecap:butt;stroke-linejoin:miter;stroke:rgb(92.576599%,92.576599%,92.576599%);stroke-opacity:1;stroke-miterlimit:4;" d="M 1844.765625 3749.601563 C 1844.609375 3772.960938 1757.890625 3888.976563 1738.515625 3906.4375 L 459.960938 3909.289063 C 476.40625 3820.421875 614.414063 3768.3125 694.023438 3754.71875 C 805.703125 3735.617188 1768.515625 3740.304688 1844.765625 3749.601563 Z M 1844.765625 3749.601563 " transform="matrix(0.1,0,0,-0.1,0,497.8)"/>
<path style="fill-rule:evenodd;fill:rgb(8.227539%,8.616638%,8.616638%);fill-opacity:1;stroke-width:14.173;stroke-linecap:butt;stroke-linejoin:miter;stroke:rgb(92.576599%,92.576599%,92.576599%);stroke-opacity:1;stroke-miterlimit:4;" d="M 1725.78125 3972.84375 C 1717.695313 4031.28125 1696.09375 4087.84375 1662.148438 4125.890625 L 298.359375 4126.046875 C 339.570313 3936.242188 735.429688 3971.984375 936.601563 3971.984375 C 1199.335938 3971.984375 1463.28125 3974.796875 1725.78125 3972.84375 Z M 1725.78125 3972.84375 " transform="matrix(0.1,0,0,-0.1,0,497.8)"/>
<path style="fill-rule:evenodd;fill:rgb(8.227539%,8.616638%,8.616638%);fill-opacity:1;stroke-width:14.173;stroke-linecap:butt;stroke-linejoin:miter;stroke:rgb(92.576599%,92.576599%,92.576599%);stroke-opacity:1;stroke-miterlimit:4;" d="M 6347.03125 3973.039063 C 6604.960938 3964.40625 6876.054688 3971.984375 7135.46875 3971.984375 C 7326.328125 3971.984375 7737.890625 3937.21875 7770.898438 4122.101563 L 6399.960938 4125.109375 C 6375.351563 4076.710938 6350.976563 4033.351563 6347.03125 3973.039063 Z M 6347.03125 3973.039063 " transform="matrix(0.1,0,0,-0.1,0,497.8)"/>
<path style="fill-rule:evenodd;fill:rgb(8.227539%,8.616638%,8.616638%);fill-opacity:1;stroke-width:14.173;stroke-linecap:butt;stroke-linejoin:miter;stroke:rgb(92.576599%,92.576599%,92.576599%);stroke-opacity:1;stroke-miterlimit:4;" d="M 6435.78125 4188.351563 L 7645.15625 4188.078125 C 7708.476563 4190.734375 7755.3125 4206.203125 7801.992188 4233.078125 C 7850.507813 4261.046875 7893.203125 4290.773438 7901.09375 4336.359375 L 6510.78125 4337.21875 Z M 6435.78125 4188.351563 " transform="matrix(0.1,0,0,-0.1,0,497.8)"/>
<path style="fill-rule:evenodd;fill:rgb(8.227539%,8.616638%,8.616638%);fill-opacity:1;stroke-width:14.173;stroke-linecap:butt;stroke-linejoin:miter;stroke:rgb(92.576599%,92.576599%,92.576599%);stroke-opacity:1;stroke-miterlimit:4;" d="M 5893.515625 3252.257813 C 6143.90625 3217.6875 6803.242188 3251.554688 7003.125 3458.585938 C 6934.023438 3485.382813 6452.617188 3471.984375 6333.554688 3471.984375 C 6235.234375 3471.984375 6086.640625 3494.367188 6018.125 3446.398438 C 5965.390625 3409.523438 5880.78125 3318.703125 5893.515625 3252.257813 Z M 5893.515625 3252.257813 " transform="matrix(0.1,0,0,-0.1,0,497.8)"/>
<path style="fill-rule:evenodd;fill:rgb(8.227539%,8.616638%,8.616638%);fill-opacity:1;stroke-width:14.173;stroke-linecap:butt;stroke-linejoin:miter;stroke:rgb(92.576599%,92.576599%,92.576599%);stroke-opacity:1;stroke-miterlimit:4;" d="M 1071.445313 3465.109375 C 1137.773438 3394.328125 1160.273438 3381.710938 1283.046875 3336.242188 C 1514.804688 3250.421875 1973.28125 3219.640625 2173.632813 3252.21875 L 2177.304688 3270.695313 C 2178.007813 3305.851563 2158.789063 3331.398438 2135.664063 3362.414063 C 2022.695313 3513.742188 1948.164063 3465.734375 1738.515625 3465.734375 C 1516.5625 3465.773438 1293.164063 3468.390625 1071.445313 3465.109375 Z M 1071.445313 3465.109375 " transform="matrix(0.1,0,0,-0.1,0,497.8)"/>
<path style="fill-rule:evenodd;fill:rgb(8.227539%,8.616638%,8.616638%);fill-opacity:1;stroke-width:14.173;stroke-linecap:butt;stroke-linejoin:miter;stroke:rgb(92.576599%,92.576599%,92.576599%);stroke-opacity:1;stroke-miterlimit:4;" d="M 6100.117188 3550.65625 C 6160.46875 3509.210938 6777.03125 3530.460938 6880.898438 3530.460938 C 7054.921875 3530.460938 7114.257813 3515.773438 7256.328125 3607.101563 C 7306.09375 3639.054688 7318.867188 3642.53125 7341.523438 3677.921875 C 7290.78125 3698.390625 6372.148438 3692.023438 6371.757813 3692.023438 C 6237.460938 3691.710938 6201.71875 3715.890625 6100.117188 3550.65625 Z M 6100.117188 3550.65625 " transform="matrix(0.1,0,0,-0.1,0,497.8)"/>
<path style="fill-rule:evenodd;fill:rgb(8.227539%,8.616638%,8.616638%);fill-opacity:1;stroke-width:14.173;stroke-linecap:butt;stroke-linejoin:miter;stroke:rgb(92.576599%,92.576599%,92.576599%);stroke-opacity:1;stroke-miterlimit:4;" d="M 1369.375 3527.882813 L 1969.921875 3527.6875 C 1963.007813 3596.046875 1897.460938 3631.164063 1869.492188 3680.382813 C 1617.851563 3696.203125 1001.71875 3683.351563 726.484375 3682.453125 C 745.234375 3649.171875 724.804688 3676.984375 746.445313 3655.382813 C 757.929688 3643.859375 765.117188 3639.367188 776.210938 3631.632813 C 833.789063 3591.242188 907.695313 3542.921875 981.210938 3533.742188 C 1089.84375 3520.1875 1254.960938 3528.390625 1369.375 3527.882813 Z M 1369.375 3527.882813 " transform="matrix(0.1,0,0,-0.1,0,497.8)"/>
<path style="fill-rule:evenodd;fill:rgb(8.227539%,8.616638%,8.616638%);fill-opacity:1;stroke-width:14.173;stroke-linecap:butt;stroke-linejoin:miter;stroke:rgb(92.576599%,92.576599%,92.576599%);stroke-opacity:1;stroke-miterlimit:4;" d="M 1350.585938 4625.578125 C 1369.453125 4568.507813 1438.59375 4508.664063 1480.742188 4476.554688 C 1555.351563 4419.71875 1591.015625 4418.46875 1700.078125 4416.398438 C 1882.34375 4412.921875 2067.578125 4415.421875 2250.039063 4416.085938 C 2224.609375 4455.851563 2188.125 4478.625 2155.859375 4515.460938 C 2126.523438 4548.976563 2098.515625 4596.046875 2069.453125 4627.335938 Z M 1350.585938 4625.578125 " transform="matrix(0.1,0,0,-0.1,0,497.8)"/>
<path style="fill-rule:evenodd;fill:rgb(8.227539%,8.616638%,8.616638%);fill-opacity:1;stroke-width:14.173;stroke-linecap:butt;stroke-linejoin:miter;stroke:rgb(92.576599%,92.576599%,92.576599%);stroke-opacity:1;stroke-miterlimit:4;" d="M 5823.203125 4419.914063 C 6005.234375 4411.28125 6202.1875 4413.3125 6384.882813 4416.632813 C 6519.21875 4419.09375 6675.9375 4497.453125 6720.46875 4625.773438 L 6002.617188 4627.726563 C 5969.453125 4593.15625 5956.210938 4561.242188 5921.210938 4523.234375 C 5895.898438 4495.773438 5840.546875 4451.789063 5823.203125 4419.914063 Z M 5823.203125 4419.914063 " transform="matrix(0.1,0,0,-0.1,0,497.8)"/>
<path style="fill-rule:evenodd;fill:rgb(8.227539%,8.616638%,8.616638%);fill-opacity:1;stroke-width:14.173;stroke-linecap:butt;stroke-linejoin:miter;stroke:rgb(92.576599%,92.576599%,92.576599%);stroke-opacity:1;stroke-miterlimit:4;" d="M 4209.804688 2849.171875 C 4137.890625 2885.34375 4097.1875 2861.125 4042.382813 2862.453125 C 3975.390625 2864.054688 3899.453125 2889.992188 3887.890625 2834.757813 C 3877.34375 2810.460938 3883.632813 2520.460938 3888.515625 2479.09375 C 4073.125 2387.53125 4003.828125 2352.21875 4206.523438 2466.984375 C 4212.617188 2560.851563 4226.054688 2765.421875 4209.804688 2849.171875 Z M 4209.804688 2849.171875 " transform="matrix(0.1,0,0,-0.1,0,497.8)"/>
<path style="fill-rule:evenodd;fill:rgb(8.227539%,8.616638%,8.616638%);fill-opacity:1;stroke-width:14.173;stroke-linecap:butt;stroke-linejoin:miter;stroke:rgb(92.576599%,92.576599%,92.576599%);stroke-opacity:1;stroke-miterlimit:4;" d="M 2962.890625 2848.703125 C 3216.640625 2616.125 3382.539063 3276.554688 3313.632813 3407.023438 C 3189.296875 3426.007813 3183.59375 3245.148438 3135.46875 3133.742188 C 3035.546875 2902.335938 2979.492188 2930.382813 2962.890625 2848.703125 Z M 2962.890625 2848.703125 " transform="matrix(0.1,0,0,-0.1,0,497.8)"/>
<path style="fill-rule:evenodd;fill:rgb(8.227539%,8.616638%,8.616638%);fill-opacity:1;stroke-width:14.173;stroke-linecap:butt;stroke-linejoin:miter;stroke:rgb(92.576599%,92.576599%,92.576599%);stroke-opacity:1;stroke-miterlimit:4;" d="M 4758.28125 3408.078125 C 4687.148438 3271.28125 4862.734375 2609.367188 5108.359375 2851.828125 C 5098.476563 2899.289063 5042.460938 2941.007813 5013.90625 2981.710938 C 4855.585938 3207.609375 4914.921875 3432.6875 4758.28125 3408.078125 Z M 4758.28125 3408.078125 " transform="matrix(0.1,0,0,-0.1,0,497.8)"/>
<path style="fill-rule:evenodd;fill:rgb(8.227539%,8.616638%,8.616638%);fill-opacity:1;stroke-width:14.173;stroke-linecap:butt;stroke-linejoin:miter;stroke:rgb(92.576599%,92.576599%,92.576599%);stroke-opacity:1;stroke-miterlimit:4;" d="M 5539.140625 3163.46875 C 5623.085938 3122.492188 5693.203125 3157.101563 5715.859375 3232.414063 C 5677.8125 3289.289063 5632.148438 3297.140625 5585.273438 3336.90625 C 5461.796875 3441.398438 5356.640625 3664.601563 5251.640625 3665.96875 C 5182.34375 3552.960938 5316.835938 3414.054688 5397.695313 3302.101563 C 5429.6875 3257.804688 5483.398438 3190.695313 5539.140625 3163.46875 Z M 5539.140625 3163.46875 " transform="matrix(0.1,0,0,-0.1,0,497.8)"/>
<path style="fill-rule:evenodd;fill:rgb(8.227539%,8.616638%,8.616638%);fill-opacity:1;stroke-width:14.173;stroke-linecap:butt;stroke-linejoin:miter;stroke:rgb(92.576599%,92.576599%,92.576599%);stroke-opacity:1;stroke-miterlimit:4;" d="M 2357.773438 3232.414063 C 2412.96875 3042.53125 2589.414063 3194.71875 2647.65625 3265.03125 C 2926.132813 3601.242188 2906.367188 3856.90625 2613.203125 3477.804688 C 2453.046875 3270.734375 2405.3125 3300.304688 2357.773438 3232.414063 Z M 2357.773438 3232.414063 " transform="matrix(0.1,0,0,-0.1,0,497.8)"/>
<path style="fill-rule:evenodd;fill:rgb(8.227539%,8.616638%,8.616638%);fill-opacity:1;stroke-width:14.173;stroke-linecap:butt;stroke-linejoin:miter;stroke:rgb(92.576599%,92.576599%,92.576599%);stroke-opacity:1;stroke-miterlimit:4;" d="M 2758.007813 2940.617188 C 3016.640625 2800.8125 3192.265625 3380.773438 3159.765625 3457.84375 C 3097.96875 3604.601563 2968.632813 3264.40625 2949.609375 3230.695313 L 2793.632813 3017.0625 C 2770.507813 2992.296875 2758.007813 2984.132813 2758.007813 2940.617188 Z M 2758.007813 2940.617188 " transform="matrix(0.1,0,0,-0.1,0,497.8)"/>
<path style="fill-rule:evenodd;fill:rgb(8.227539%,8.616638%,8.616638%);fill-opacity:1;stroke-width:14.173;stroke-linecap:butt;stroke-linejoin:miter;stroke:rgb(92.576599%,92.576599%,92.576599%);stroke-opacity:1;stroke-miterlimit:4;" d="M 5213.945313 3093.15625 C 5091.289063 3240.304688 5048.671875 3449.484375 4986.953125 3476.984375 C 4947.421875 3494.601563 4924.414063 3485.695313 4913.398438 3457.804688 C 4875.898438 3362.6875 4987.890625 3152.804688 5027.851563 3085.03125 C 5089.6875 2979.835938 5159.101563 2872.21875 5314.765625 2938.546875 C 5309.335938 2994.015625 5245.351563 3055.460938 5213.945313 3093.15625 Z M 5213.945313 3093.15625 " transform="matrix(0.1,0,0,-0.1,0,497.8)"/>
<path style="fill-rule:evenodd;fill:rgb(8.227539%,8.616638%,8.616638%);fill-opacity:1;stroke-width:14.173;stroke-linecap:butt;stroke-linejoin:miter;stroke:rgb(92.576599%,92.576599%,92.576599%);stroke-opacity:1;stroke-miterlimit:4;" d="M 2973.203125 3550.65625 C 2858.242188 3568.390625 2807.148438 3379.484375 2749.960938 3303.039063 C 2711.640625 3251.867188 2676.953125 3218.273438 2635.703125 3175.382813 C 2603.046875 3141.359375 2525.742188 3092.0625 2595.390625 3046.945313 C 2728.359375 2960.8125 2816.015625 3137.140625 2864.296875 3214.328125 C 2903.046875 3276.28125 3014.53125 3457.492188 2973.203125 3550.65625 Z M 2973.203125 3550.65625 " transform="matrix(0.1,0,0,-0.1,0,497.8)"/>
<path style="fill-rule:evenodd;fill:rgb(8.227539%,8.616638%,8.616638%);fill-opacity:1;stroke-width:14.173;stroke-linecap:butt;stroke-linejoin:miter;stroke:rgb(92.576599%,92.576599%,92.576599%);stroke-opacity:1;stroke-miterlimit:4;" d="M 5297.890625 3342.53125 C 5036.992188 3771.476563 5020.507813 3516.710938 5227.265625 3182.960938 C 5287.65625 3085.421875 5360.9375 2964.835938 5505.195313 3065.109375 C 5498.632813 3153.585938 5379.726563 3208.078125 5297.890625 3342.53125 Z M 5297.890625 3342.53125 " transform="matrix(0.1,0,0,-0.1,0,497.8)"/>
<path style="fill-rule:evenodd;fill:rgb(8.227539%,8.616638%,8.616638%);fill-opacity:1;stroke-width:14.173;stroke-linecap:butt;stroke-linejoin:miter;stroke:rgb(92.576599%,92.576599%,92.576599%);stroke-opacity:1;stroke-miterlimit:4;" d="M 2261.171875 3300.460938 C 2391.953125 3290.65625 2474.21875 3421.632813 2534.648438 3480.265625 C 2587.421875 3531.4375 2711.210938 3647.6875 2690.390625 3763.46875 C 2587.109375 3769.015625 2526.875 3638.507813 2448.28125 3579.054688 C 2386.09375 3532.0625 2246.953125 3446.867188 2197.695313 3397.921875 C 2211.914063 3350.96875 2237.8125 3327.804688 2261.171875 3300.460938 Z M 2261.171875 3300.460938 " transform="matrix(0.1,0,0,-0.1,0,497.8)"/>
<path style="fill-rule:evenodd;fill:rgb(8.227539%,8.616638%,8.616638%);fill-opacity:1;stroke-width:14.173;stroke-linecap:butt;stroke-linejoin:miter;stroke:rgb(92.576599%,92.576599%,92.576599%);stroke-opacity:1;stroke-miterlimit:4;" d="M 5873.164063 3397.921875 C 5846.875 3427.609375 5784.414063 3461.398438 5748.085938 3487.140625 C 5638.867188 3564.640625 5593.398438 3589.835938 5517.148438 3689.015625 C 5486.640625 3728.703125 5450.390625 3769.71875 5378.90625 3765.109375 C 5359.960938 3634.757813 5512.890625 3506.515625 5583.710938 3437.296875 C 5654.648438 3367.960938 5798.085938 3184.09375 5873.164063 3397.921875 Z M 5873.164063 3397.921875 " transform="matrix(0.1,0,0,-0.1,0,497.8)"/>
<path style="fill-rule:evenodd;fill:rgb(8.227539%,8.616638%,8.616638%);fill-opacity:1;stroke-width:14.173;stroke-linecap:butt;stroke-linejoin:miter;stroke:rgb(92.576599%,92.576599%,92.576599%);stroke-opacity:1;stroke-miterlimit:4;" d="M 4640.664063 3305.851563 C 4608.164063 3249.601563 4622.34375 2982.6875 4624.609375 2900.8125 C 4630.585938 2685.96875 4821.171875 2734.523438 4875.625 2774.210938 C 4844.023438 2862.804688 4780.78125 2894.210938 4741.015625 3027.21875 C 4697.265625 3173.390625 4705.039063 3296.085938 4640.664063 3305.851563 Z M 4640.664063 3305.851563 " transform="matrix(0.1,0,0,-0.1,0,497.8)"/>
<path style="fill-rule:evenodd;fill:rgb(8.227539%,8.616638%,8.616638%);fill-opacity:1;stroke-width:14.173;stroke-linecap:butt;stroke-linejoin:miter;stroke:rgb(92.576599%,92.576599%,92.576599%);stroke-opacity:1;stroke-miterlimit:4;" d="M 3196.757813 2759.367188 C 3344.140625 2727.140625 3438.90625 2719.367188 3448.242188 2900.8125 C 3452.1875 2977.648438 3459.765625 3248.9375 3431.40625 3304.875 C 3374.140625 3292.726563 3380.390625 3234.992188 3368.710938 3169.289063 C 3319.921875 2894.054688 3209.921875 2846.515625 3196.757813 2759.367188 Z M 3196.757813 2759.367188 " transform="matrix(0.1,0,0,-0.1,0,497.8)"/>
<path style="fill-rule:evenodd;fill:rgb(8.227539%,8.616638%,8.616638%);fill-opacity:1;stroke-width:14.173;stroke-linecap:butt;stroke-linejoin:miter;stroke:rgb(92.576599%,92.576599%,92.576599%);stroke-opacity:1;stroke-miterlimit:4;" d="M 6141.875 3754.328125 C 6095.703125 3771.671875 6043.710938 3771.554688 5989.6875 3792.101563 C 5819.023438 3857.257813 5706.328125 3987.492188 5616.210938 3988.546875 C 5590.078125 3881.554688 5762.539063 3782.492188 5832.578125 3736.789063 C 5902.890625 3690.851563 6165.507813 3544.601563 6141.875 3754.328125 Z M 6141.875 3754.328125 " transform="matrix(0.1,0,0,-0.1,0,497.8)"/>
<path style="fill-rule:evenodd;fill:rgb(8.227539%,8.616638%,8.616638%);fill-opacity:1;stroke-width:14.173;stroke-linecap:butt;stroke-linejoin:miter;stroke:rgb(92.576599%,92.576599%,92.576599%);stroke-opacity:1;stroke-miterlimit:4;" d="M 2043.125 3563.351563 C 2045.390625 3526.398438 2053.359375 3507.804688 2065.117188 3482.882813 C 2197.65625 3454.054688 2286.09375 3542.726563 2368.984375 3607.453125 C 2437.578125 3661.046875 2583.007813 3750.460938 2573.046875 3853.46875 C 2486.640625 3874.71875 2427.96875 3763.273438 2326.71875 3700.539063 C 2254.492188 3655.8125 2089.023438 3600.8125 2043.125 3563.351563 Z M 2043.125 3563.351563 " transform="matrix(0.1,0,0,-0.1,0,497.8)"/>
<path style="fill-rule:evenodd;fill:rgb(8.227539%,8.616638%,8.616638%);fill-opacity:1;stroke-width:14.173;stroke-linecap:butt;stroke-linejoin:miter;stroke:rgb(92.576599%,92.576599%,92.576599%);stroke-opacity:1;stroke-miterlimit:4;" d="M 1812.265625 3932.765625 C 1834.21875 3763.273438 1998.515625 3812.84375 2107.65625 3867.648438 C 2161.640625 3894.757813 2212.1875 3920.851563 2252.578125 3953.15625 C 2309.492188 3998.703125 2355.742188 4013.3125 2349.335938 4100.109375 C 2201.71875 4109.054688 2234.84375 3987.960938 1812.265625 3932.765625 Z M 1812.265625 3932.765625 " transform="matrix(0.1,0,0,-0.1,0,497.8)"/>
<path style="fill-rule:evenodd;fill:rgb(8.227539%,8.616638%,8.616638%);fill-opacity:1;stroke-width:14.173;stroke-linecap:butt;stroke-linejoin:miter;stroke:rgb(92.576599%,92.576599%,92.576599%);stroke-opacity:1;stroke-miterlimit:4;" d="M 1926.601563 3741.59375 C 1954.023438 3483.546875 2462.539063 3824.875 2463.242188 3985.539063 C 2343.125 3989.953125 2223.4375 3812.101563 2007.617188 3767.53125 C 1959.296875 3757.53125 1962.1875 3766.476563 1926.601563 3741.59375 Z M 1926.601563 3741.59375 " transform="matrix(0.1,0,0,-0.1,0,497.8)"/>
<path style="fill-rule:evenodd;fill:rgb(8.227539%,8.616638%,8.616638%);fill-opacity:1;stroke-width:14.173;stroke-linecap:butt;stroke-linejoin:miter;stroke:rgb(92.576599%,92.576599%,92.576599%);stroke-opacity:1;stroke-miterlimit:4;" d="M 6028.515625 3563.351563 C 5980.859375 3604.484375 5798.710938 3663.3125 5724.023438 3717.414063 C 5676.367188 3751.90625 5646.09375 3785.460938 5599.492188 3822.21875 C 5561.171875 3852.453125 5459.023438 3907.492188 5506.523438 3794.640625 C 5529.960938 3738.859375 6022.304688 3287.140625 6028.515625 3563.351563 Z M 6028.515625 3563.351563 " transform="matrix(0.1,0,0,-0.1,0,497.8)"/>
<path style="fill-rule:evenodd;fill:rgb(8.227539%,8.616638%,8.616638%);fill-opacity:1;stroke-width:14.173;stroke-linecap:butt;stroke-linejoin:miter;stroke:rgb(92.576599%,92.576599%,92.576599%);stroke-opacity:1;stroke-miterlimit:4;" d="M 6259.882813 3933.9375 C 5843.28125 3988.507813 5880.078125 4099.875 5725.78125 4105.96875 C 5697.1875 4005.617188 5871.445313 3915.148438 5956.367188 3873.195313 C 6078.28125 3812.960938 6231.796875 3767.648438 6259.882813 3933.9375 Z M 6259.882813 3933.9375 " transform="matrix(0.1,0,0,-0.1,0,497.8)"/>
<path style="fill-rule:evenodd;fill:rgb(8.227539%,8.616638%,8.616638%);fill-opacity:1;stroke-width:14.173;stroke-linecap:butt;stroke-linejoin:miter;stroke:rgb(92.576599%,92.576599%,92.576599%);stroke-opacity:1;stroke-miterlimit:4;" d="M 1661.796875 4339.289063 C 1661.210938 4211.28125 1698.398438 4172.0625 1826.054688 4179.171875 C 1999.140625 4188.78125 2326.171875 4338.78125 2096.640625 4342.335938 Z M 1661.796875 4339.289063 " transform="matrix(0.1,0,0,-0.1,0,497.8)"/>
<path style="fill-rule:evenodd;fill:rgb(8.227539%,8.616638%,8.616638%);fill-opacity:1;stroke-width:14.173;stroke-linecap:butt;stroke-linejoin:miter;stroke:rgb(92.576599%,92.576599%,92.576599%);stroke-opacity:1;stroke-miterlimit:4;" d="M 6317.148438 4131.59375 C 6213.710938 4141.046875 6146.71875 4139.367188 6047.148438 4168.039063 C 5965.9375 4191.4375 5887.109375 4244.640625 5811.601563 4240.226563 C 5805.273438 4119.992188 5889.375 4079.484375 6037.65625 4031.085938 C 6149.0625 3994.757813 6323.789063 3989.523438 6317.148438 4131.59375 Z M 6317.148438 4131.59375 " transform="matrix(0.1,0,0,-0.1,0,497.8)"/>
<path style="fill-rule:evenodd;fill:rgb(8.227539%,8.616638%,8.616638%);fill-opacity:1;stroke-width:14.173;stroke-linecap:butt;stroke-linejoin:miter;stroke:rgb(92.576599%,92.576599%,92.576599%);stroke-opacity:1;stroke-miterlimit:4;" d="M 1755.78125 4130.304688 C 1743.671875 3949.171875 2013.359375 3996.242188 2183.359375 4098.351563 C 2239.023438 4131.867188 2264.960938 4157.609375 2261.328125 4239.914063 C 2178.59375 4241.632813 2109.6875 4189.796875 2026.210938 4166.203125 C 1928.242188 4138.507813 1859.257813 4140.734375 1755.78125 4130.304688 Z M 1755.78125 4130.304688 " transform="matrix(0.1,0,0,-0.1,0,497.8)"/>
<path style="fill-rule:evenodd;fill:rgb(8.227539%,8.616638%,8.616638%);fill-opacity:1;stroke-width:14.173;stroke-linecap:butt;stroke-linejoin:miter;stroke:rgb(92.576599%,92.576599%,92.576599%);stroke-opacity:1;stroke-miterlimit:4;" d="M 6412.617188 4340.96875 L 5908.476563 4337.84375 C 5896.71875 4249.210938 6092.734375 4210.578125 6163.515625 4194.484375 C 6321.601563 4158.585938 6406.992188 4175.460938 6412.617188 4340.96875 Z M 6412.617188 4340.96875 " transform="matrix(0.1,0,0,-0.1,0,497.8)"/>
<path style="fill-rule:evenodd;fill:rgb(8.227539%,8.616638%,8.616638%);fill-opacity:1;stroke-width:14.173;stroke-linecap:butt;stroke-linejoin:miter;stroke:rgb(92.576599%,92.576599%,92.576599%);stroke-opacity:1;stroke-miterlimit:4;" d="M 4144.257813 4805.734375 C 4162.578125 4805.734375 4177.460938 4792.726563 4177.460938 4776.671875 C 4177.460938 4760.617188 4162.578125 4747.609375 4144.257813 4747.609375 C 4125.898438 4747.609375 4111.015625 4760.617188 4111.015625 4776.671875 C 4111.015625 4792.726563 4125.898438 4805.734375 4144.257813 4805.734375 Z M 4144.257813 4805.734375 " transform="matrix(0.1,0,0,-0.1,0,497.8)"/>
<path style="fill-rule:evenodd;fill:rgb(8.227539%,8.616638%,8.616638%);fill-opacity:1;stroke-width:14.173;stroke-linecap:butt;stroke-linejoin:miter;stroke:rgb(92.576599%,92.576599%,92.576599%);stroke-opacity:1;stroke-miterlimit:4;" d="M 4452.890625 2249.445313 C 4557.382813 2242.960938 4568.007813 2177.414063 4645.507813 2159.328125 C 4677.265625 2263.859375 4506.640625 2315.265625 4450.46875 2384.09375 C 4441.289063 2443.117188 4472.734375 2474.601563 4431.875 2523.546875 C 4368.359375 2519.171875 4402.34375 2514.289063 4346.757813 2391.476563 C 4258.984375 2392.257813 4152.8125 2426.984375 4114.296875 2355.460938 C 4167.851563 2298.664063 4289.53125 2319.5625 4334.140625 2272.0625 C 4400.46875 2201.4375 4327.617188 2022.414063 4328.945313 2031.90625 C 4328.007813 2025.460938 4315.234375 2006.007813 4310.234375 1999.835938 L 4301.054688 1988.507813 C 4294.960938 1980.96875 4292.03125 1977.375 4285.507813 1970.304688 C 4273.59375 1957.257813 4266.796875 1934.132813 4285.546875 1923.78125 C 4286.796875 1925.226563 4363.671875 1949.132813 4365.15625 1950.265625 L 4364.609375 1949.132813 L 4372.1875 1964.367188 C 4372.773438 1965.578125 4373.476563 1966.710938 4374.21875 1967.84375 L 4396.054688 2015.148438 C 4418.515625 2083.898438 4435.3125 2176.554688 4452.890625 2249.445313 Z M 4452.890625 2249.445313 " transform="matrix(0.1,0,0,-0.1,0,497.8)"/>
<path style="fill-rule:evenodd;fill:rgb(8.227539%,8.616638%,8.616638%);fill-opacity:1;stroke-width:14.173;stroke-linecap:butt;stroke-linejoin:miter;stroke:rgb(92.576599%,92.576599%,92.576599%);stroke-opacity:1;stroke-miterlimit:4;" d="M 3657.773438 2280.421875 C 3553.28125 2274.210938 3542.460938 2208.742188 3464.921875 2190.851563 C 3433.476563 2295.460938 3604.257813 2346.398438 3660.625 2415.03125 C 3669.960938 2474.054688 3638.632813 2505.65625 3679.609375 2554.445313 C 3743.125 2549.914063 3709.140625 2545.148438 3764.375 2422.101563 C 3852.148438 2422.6875 3958.398438 2457.0625 3996.71875 2385.460938 C 3943.007813 2328.78125 3821.367188 2350.03125 3776.640625 2302.6875 C 3710.117188 2232.257813 3782.421875 2052.960938 3781.09375 2062.53125 C 3782.03125 2056.085938 3794.726563 2036.59375 3799.726563 2030.382813 L 3808.867188 2019.054688 C 3814.960938 2011.476563 3817.8125 2007.882813 3824.375 2000.773438 C 3836.210938 1987.726563 3843.007813 1964.5625 3824.140625 1954.328125 C 3822.96875 1955.695313 3746.132813 1979.875 3744.648438 1980.96875 L 3745.234375 1979.835938 L 3737.65625 1995.109375 C 3737.03125 1996.28125 3736.40625 1997.453125 3735.625 1998.585938 L 3713.984375 2045.890625 C 3691.640625 2114.757813 3675.15625 2207.492188 3657.773438 2280.421875 Z M 3657.773438 2280.421875 " transform="matrix(0.1,0,0,-0.1,0,497.8)"/>
<g clip-path="url(#clip1)" clip-rule="nonzero">
<path style=" stroke:none;fill-rule:evenodd;fill:rgb(8.227539%,8.616638%,8.616638%);fill-opacity:1;" d="M 632.117188 473.238281 C 633.339844 472.210938 634.4375 471.695313 635.414063 471.695313 C 636.015625 471.695313 636.511719 471.941406 636.902344 472.453125 C 637.257813 472.886719 637.433594 473.410156 637.433594 473.992188 C 637.433594 475.113281 637.070313 476.46875 636.335938 478.058594 C 635.523438 479.828125 634.34375 481.464844 632.789063 482.988281 C 631.515625 484.253906 630.300781 484.878906 629.144531 484.878906 C 628.710938 484.878906 628.324219 484.796875 627.972656 484.644531 C 627.621094 484.484375 627.3125 484.253906 627.035156 483.933594 C 626.925781 484.132813 626.851563 484.261719 626.820313 484.320313 C 626.578125 484.847656 626.410156 485.164063 626.316406 485.28125 C 626.222656 485.390625 626.074219 485.453125 625.878906 485.453125 C 625.621094 485.453125 625.378906 485.296875 625.144531 484.996094 C 624.992188 484.796875 624.910156 484.589844 624.910156 484.351563 C 624.910156 483.960938 625.730469 481.925781 627.378906 478.273438 C 629.679688 473.175781 632.34375 468.105469 635.371094 463.066406 C 636.601563 461.007813 637.355469 459.800781 637.621094 459.441406 C 637.925781 459.015625 638.203125 458.796875 638.46875 458.796875 C 638.78125 458.796875 639.0625 458.960938 639.308594 459.273438 C 639.464844 459.46875 639.539063 459.707031 639.539063 459.976563 C 639.539063 460.273438 639.40625 460.65625 639.132813 461.117188 C 639.078125 461.214844 638.628906 461.957031 637.785156 463.320313 C 635.195313 467.332031 633.304688 470.640625 632.117188 473.238281 Z M 627.855469 481.90625 C 628.066406 482.203125 628.285156 482.410156 628.515625 482.554688 C 628.734375 482.695313 628.96875 482.769531 629.210938 482.769531 C 630.460938 482.769531 631.78125 481.683594 633.171875 479.515625 C 633.816406 478.535156 634.324219 477.566406 634.695313 476.609375 C 635.023438 475.746094 635.195313 475.105469 635.195313 474.691406 C 635.195313 474.398438 635.128906 474.191406 635.003906 474.050781 C 634.871094 473.914063 634.675781 473.847656 634.394531 473.847656 C 633.738281 473.847656 632.9375 474.300781 632.007813 475.207031 C 631.078125 476.097656 630.15625 477.378906 629.253906 479.0625 C 628.820313 479.867188 628.449219 480.621094 628.132813 481.328125 C 627.949219 481.714844 627.855469 481.90625 627.855469 481.90625 Z M 645.859375 478.507813 C 644.589844 480.007813 643.574219 481.121094 642.820313 481.851563 C 641.316406 483.28125 640.066406 484.003906 639.0625 484.003906 C 638.578125 484.003906 638.191406 483.828125 637.902344 483.464844 C 637.691406 483.179688 637.578125 482.820313 637.578125 482.394531 C 637.578125 480.851563 638.496094 478.804688 640.320313 476.253906 C 642.183594 473.648438 643.523438 472.351563 644.347656 472.351563 C 644.578125 472.351563 644.773438 472.460938 644.949219 472.652344 C 645.105469 472.808594 645.183594 472.996094 645.183594 473.214844 C 645.183594 473.523438 645.105469 473.796875 644.941406 474.03125 C 644.773438 474.265625 644.3125 474.792969 643.539063 475.605469 C 642.730469 476.453125 641.984375 477.355469 641.300781 478.34375 C 640.519531 479.460938 640.128906 480.269531 640.128906 480.785156 C 640.128906 481.089844 640.277344 481.230469 640.5625 481.230469 C 641.140625 481.230469 642.21875 480.445313 643.800781 478.886719 C 644.796875 477.898438 645.574219 477.070313 646.136719 476.398438 C 646.246094 476.257813 646.753906 475.578125 647.636719 474.359375 C 648.4375 473.285156 648.933594 472.644531 649.117188 472.453125 C 649.550781 471.941406 649.945313 471.695313 650.320313 471.695313 C 650.546875 471.695313 650.757813 471.796875 650.941406 471.996094 C 651.117188 472.179688 651.199219 472.398438 651.199219 472.640625 C 651.199219 473.054688 650.914063 473.746094 650.339844 474.71875 C 649.652344 475.90625 649.023438 477.011719 648.453125 478.042969 C 647.550781 479.648438 646.855469 481.082031 646.371094 482.339844 C 647.28125 481.808594 648.105469 481.15625 648.855469 480.382813 C 650.128906 479.09375 650.90625 478.140625 651.191406 477.511719 C 651.460938 476.9375 651.734375 476.644531 652.019531 476.644531 C 652.414063 476.644531 652.613281 476.851563 652.613281 477.253906 C 652.613281 478.007813 651.972656 479.136719 650.691406 480.636719 C 649.160156 482.445313 647.273438 483.992188 645.03125 485.257813 C 643.828125 488.152344 642.6875 490.546875 641.609375 492.457031 C 639.601563 495.960938 637.53125 497.710938 635.390625 497.710938 C 634.519531 497.710938 633.816406 497.375 633.28125 496.699219 C 632.863281 496.1875 632.660156 495.539063 632.660156 494.75 C 632.660156 492.511719 634.226563 490.234375 637.363281 487.894531 C 638.277344 487.210938 639.640625 486.351563 641.441406 485.316406 C 642.175781 484.898438 642.746094 484.570313 643.164063 484.308594 C 643.414063 483.648438 643.808594 482.777344 644.328125 481.683594 C 644.914063 480.511719 645.414063 479.453125 645.859375 478.507813 Z M 641.894531 486.972656 C 640.378906 487.742188 638.835938 488.839844 637.253906 490.277344 C 635.65625 491.75 634.855469 493.125 634.855469 494.394531 C 634.855469 494.671875 634.9375 494.898438 635.089844 495.082031 C 635.304688 495.335938 635.578125 495.46875 635.925781 495.46875 C 636.996094 495.46875 638.183594 494.347656 639.480469 492.101563 C 639.691406 491.726563 640.277344 490.488281 641.230469 488.386719 C 641.433594 487.957031 641.652344 487.484375 641.894531 486.972656 Z M 668.558594 476.242188 C 669.328125 476.242188 669.722656 476.550781 669.722656 477.179688 C 669.722656 477.65625 669.363281 478.015625 668.636719 478.257813 C 667.398438 478.695313 666.777344 479.496094 666.777344 480.636719 C 666.777344 481.554688 667.136719 482.269531 667.855469 482.785156 C 668.46875 483.214844 669.246094 483.429688 670.191406 483.429688 C 672.085938 483.429688 673.742188 482.878906 675.15625 481.773438 C 676.039063 481.070313 676.488281 480.183594 676.488281 479.113281 C 676.488281 478.457031 676.359375 477.863281 676.101563 477.332031 C 675.828125 476.785156 675.414063 476.097656 674.855469 475.269531 C 673.996094 473.980469 673.273438 472.808594 672.6875 471.746094 C 672.027344 470.578125 671.699219 469.417969 671.699219 468.289063 C 671.699219 465.609375 673.023438 463.101563 675.664063 460.773438 C 677.070313 459.558594 678.613281 458.570313 680.296875 457.808594 C 681.699219 457.191406 683.046875 456.882813 684.347656 456.882813 C 685.191406 456.882813 685.910156 457.105469 686.496094 457.542969 C 687.203125 458.070313 687.5625 458.789063 687.5625 459.695313 C 687.5625 461.132813 686.796875 462.675781 685.246094 464.335938 C 683.789063 465.894531 682.085938 467.167969 680.144531 468.15625 C 679.171875 468.640625 678.4375 468.882813 677.933594 468.882813 C 677.601563 468.882813 677.308594 468.753906 677.054688 468.480469 C 676.886719 468.289063 676.796875 468.085938 676.796875 467.855469 C 676.796875 467.320313 677.265625 466.894531 678.210938 466.566406 C 679.941406 465.957031 681.46875 465.089844 682.796875 463.96875 C 684.511719 462.539063 685.367188 461.285156 685.367188 460.214844 C 685.367188 459.800781 685.199219 459.464844 684.855469 459.210938 C 684.578125 459.007813 684.261719 458.90625 683.886719 458.90625 C 682.90625 458.90625 681.675781 459.285156 680.1875 460.039063 C 678.195313 461.058594 676.621094 462.371094 675.480469 463.972656 C 674.484375 465.367188 673.984375 466.714844 673.984375 468.03125 C 673.984375 468.992188 674.246094 469.980469 674.78125 471.003906 C 675.222656 471.8125 675.789063 472.734375 676.480469 473.765625 C 677.140625 474.753906 677.699219 475.671875 678.152344 476.511719 C 678.6875 477.515625 678.949219 478.457031 678.949219 479.332031 C 678.949219 481.019531 677.984375 482.511719 676.039063 483.816406 C 674.394531 484.90625 672.527344 485.453125 670.445313 485.453125 C 668.394531 485.453125 666.789063 484.886719 665.628906 483.765625 C 664.757813 482.914063 664.316406 481.925781 664.316406 480.8125 C 664.316406 479.566406 664.734375 478.519531 665.570313 477.679688 C 666.074219 477.164063 666.675781 476.777344 667.363281 476.519531 C 667.839844 476.335938 668.234375 476.242188 668.558594 476.242188 Z M 684.828125 477.394531 C 684.398438 478.507813 684.078125 479.40625 683.867188 480.09375 C 683.652344 480.777344 683.539063 481.261719 683.539063 481.53125 C 683.539063 481.890625 683.710938 482.066406 684.054688 482.066406 C 684.570313 482.066406 685.234375 481.585938 686.046875 480.609375 C 686.4375 480.132813 687.007813 479.28125 687.761719 478.050781 C 688.0625 477.5625 688.378906 477.320313 688.699219 477.320313 C 689.074219 477.320313 689.257813 477.496094 689.257813 477.855469 C 689.257813 478.46875 688.546875 479.714844 687.132813 481.589844 C 685.660156 483.546875 684.296875 484.527344 683.039063 484.527344 C 682.496094 484.527344 682.054688 484.300781 681.710938 483.839844 C 681.46875 483.507813 681.347656 483.113281 681.347656 482.636719 C 681.347656 481.839844 681.585938 480.734375 682.078125 479.320313 C 682.5625 477.90625 683.285156 476.183594 684.246094 474.15625 C 686.703125 468.992188 689.21875 464.742188 691.785156 461.394531 C 693.828125 458.710938 695.527344 457.367188 696.871094 457.367188 C 697.296875 457.367188 697.648438 457.527344 697.921875 457.859375 C 698.203125 458.1875 698.355469 458.570313 698.355469 458.992188 C 698.355469 461.003906 696.566406 464.328125 692.984375 468.984375 C 691.386719 471.058594 689.46875 473.128906 687.234375 475.207031 C 686.648438 475.746094 685.851563 476.476563 684.828125 477.394531 Z M 686.347656 474.015625 C 689.324219 471.46875 691.988281 468.253906 694.328125 464.355469 C 695.546875 462.339844 696.15625 461.003906 696.15625 460.339844 C 696.15625 460.027344 696.015625 459.871094 695.746094 459.871094 C 694.960938 459.871094 693.535156 461.441406 691.453125 464.578125 C 689.738281 467.144531 688.039063 470.296875 686.347656 474.015625 Z M 698.40625 478.507813 C 697.136719 480.007813 696.121094 481.121094 695.367188 481.851563 C 693.863281 483.28125 692.609375 484.003906 691.609375 484.003906 C 691.121094 484.003906 690.734375 483.828125 690.449219 483.464844 C 690.238281 483.179688 690.128906 482.820313 690.128906 482.394531 C 690.128906 480.851563 691.039063 478.804688 692.867188 476.253906 C 694.726563 473.648438 696.066406 472.351563 696.894531 472.351563 C 697.121094 472.351563 697.320313 472.460938 697.496094 472.652344 C 697.648438 472.808594 697.730469 472.996094 697.730469 473.214844 C 697.730469 473.523438 697.648438 473.796875 697.488281 474.03125 C 697.320313 474.265625 696.859375 474.792969 696.089844 475.605469 C 695.277344 476.453125 694.53125 477.355469 693.847656 478.34375 C 693.066406 479.460938 692.675781 480.269531 692.675781 480.785156 C 692.675781 481.089844 692.824219 481.230469 693.109375 481.230469 C 693.6875 481.230469 694.765625 480.445313 696.347656 478.886719 C 697.34375 477.898438 698.121094 477.070313 698.683594 476.398438 C 698.789063 476.257813 699.296875 475.578125 700.183594 474.359375 C 700.984375 473.285156 701.480469 472.644531 701.664063 472.453125 C 702.097656 471.941406 702.492188 471.695313 702.867188 471.695313 C 703.09375 471.695313 703.304688 471.796875 703.488281 471.996094 C 703.664063 472.179688 703.746094 472.398438 703.746094 472.640625 C 703.746094 473.054688 703.453125 473.746094 702.886719 474.71875 C 702.199219 475.90625 701.570313 477.011719 700.996094 478.042969 C 700.097656 479.648438 699.402344 481.082031 698.914063 482.339844 C 699.824219 481.808594 700.652344 481.15625 701.402344 480.382813 C 702.675781 479.09375 703.453125 478.140625 703.738281 477.511719 C 704.007813 476.9375 704.277344 476.644531 704.566406 476.644531 C 704.960938 476.644531 705.15625 476.851563 705.15625 477.253906 C 705.15625 478.007813 704.519531 479.136719 703.238281 480.636719 C 701.703125 482.445313 699.820313 483.992188 697.578125 485.257813 C 696.371094 488.152344 695.234375 490.546875 694.15625 492.457031 C 692.148438 495.960938 690.078125 497.710938 687.9375 497.710938 C 687.066406 497.710938 686.363281 497.375 685.828125 496.699219 C 685.410156 496.1875 685.203125 495.539063 685.203125 494.75 C 685.203125 492.511719 686.773438 490.234375 689.910156 487.894531 C 690.824219 487.210938 692.1875 486.351563 693.988281 485.316406 C 694.71875 484.898438 695.289063 484.570313 695.710938 484.308594 C 695.953125 483.648438 696.355469 482.777344 696.871094 481.683594 C 697.460938 480.511719 697.964844 479.453125 698.40625 478.507813 Z M 694.441406 486.972656 C 692.925781 487.742188 691.378906 488.839844 689.796875 490.277344 C 688.203125 491.75 687.402344 493.125 687.402344 494.394531 C 687.402344 494.671875 687.484375 494.898438 687.636719 495.082031 C 687.851563 495.335938 688.128906 495.46875 688.472656 495.46875 C 689.539063 495.46875 690.730469 494.347656 692.023438 492.101563 C 692.238281 491.726563 692.824219 490.488281 693.777344 488.386719 C 693.980469 487.957031 694.199219 487.484375 694.441406 486.972656 Z M 710.117188 476.242188 C 710.894531 476.242188 711.28125 476.550781 711.28125 477.179688 C 711.28125 477.65625 710.921875 478.015625 710.195313 478.257813 C 708.960938 478.695313 708.335938 479.496094 708.335938 480.636719 C 708.335938 481.554688 708.695313 482.269531 709.414063 482.785156 C 710.027344 483.214844 710.804688 483.429688 711.746094 483.429688 C 713.648438 483.429688 715.300781 482.878906 716.714844 481.773438 C 717.601563 481.070313 718.050781 480.183594 718.050781 479.113281 C 718.050781 478.457031 717.914063 477.863281 717.660156 477.332031 C 717.390625 476.785156 716.972656 476.097656 716.414063 475.269531 C 715.558594 473.980469 714.828125 472.808594 714.246094 471.746094 C 713.589844 470.578125 713.257813 469.417969 713.257813 468.289063 C 713.257813 465.609375 714.585938 463.101563 717.230469 460.773438 C 718.628906 459.558594 720.171875 458.570313 721.859375 457.808594 C 723.257813 457.191406 724.605469 456.882813 725.910156 456.882813 C 726.746094 456.882813 727.46875 457.105469 728.054688 457.542969 C 728.765625 458.070313 729.121094 458.789063 729.121094 459.695313 C 729.121094 461.132813 728.355469 462.675781 726.808594 464.335938 C 725.351563 465.894531 723.644531 467.167969 721.703125 468.15625 C 720.730469 468.640625 719.996094 468.882813 719.492188 468.882813 C 719.164063 468.882813 718.871094 468.753906 718.613281 468.480469 C 718.445313 468.289063 718.355469 468.085938 718.355469 467.855469 C 718.355469 467.320313 718.824219 466.894531 719.769531 466.566406 C 721.496094 465.957031 723.03125 465.089844 724.355469 463.96875 C 726.070313 462.539063 726.925781 461.285156 726.925781 460.214844 C 726.925781 459.800781 726.757813 459.464844 726.414063 459.210938 C 726.144531 459.007813 725.820313 458.90625 725.445313 458.90625 C 724.464844 458.90625 723.234375 459.285156 721.746094 460.039063 C 719.757813 461.058594 718.179688 462.371094 717.039063 463.972656 C 716.039063 465.367188 715.539063 466.714844 715.539063 468.03125 C 715.539063 468.992188 715.808594 469.980469 716.34375 471.003906 C 716.78125 471.8125 717.351563 472.734375 718.039063 473.765625 C 718.703125 474.753906 719.257813 475.671875 719.710938 476.511719 C 720.246094 477.515625 720.511719 478.457031 720.511719 479.332031 C 720.511719 481.019531 719.539063 482.511719 717.601563 483.816406 C 715.953125 484.90625 714.085938 485.453125 712.007813 485.453125 C 709.953125 485.453125 708.351563 484.886719 707.1875 483.765625 C 706.316406 482.914063 705.871094 481.925781 705.871094 480.8125 C 705.871094 479.566406 706.289063 478.519531 707.128906 477.679688 C 707.632813 477.164063 708.234375 476.777344 708.921875 476.519531 C 709.398438 476.335938 709.789063 476.242188 710.117188 476.242188 Z M 731.644531 475.347656 C 730.714844 477.65625 730.246094 479.414063 730.246094 480.617188 C 730.246094 481.210938 730.363281 481.691406 730.589844 482.085938 C 730.871094 482.570313 731.253906 482.8125 731.722656 482.8125 C 732.699219 482.8125 733.828125 482.160156 735.101563 480.855469 C 735.941406 480.03125 736.652344 479.1875 737.226563 478.335938 C 737.597656 477.757813 737.949219 477.472656 738.28125 477.472656 C 738.609375 477.472656 738.769531 477.632813 738.769531 477.964844 C 738.769531 478.507813 738.109375 479.621094 736.789063 481.3125 C 734.84375 483.808594 732.953125 485.054688 731.121094 485.054688 C 730.023438 485.054688 729.242188 484.519531 728.78125 483.460938 C 728.4375 482.667969 728.265625 481.839844 728.265625 480.96875 C 728.265625 480.234375 728.4375 479.15625 728.78125 477.730469 C 727.851563 478.503906 726.441406 480.386719 724.546875 483.390625 C 724.046875 484.207031 723.585938 484.613281 723.175781 484.613281 C 722.953125 484.613281 722.773438 484.519531 722.613281 484.339844 C 722.453125 484.132813 722.378906 483.933594 722.378906 483.734375 C 722.378906 483.164063 723.132813 481.246094 724.632813 478.003906 C 727.285156 472.308594 730.121094 467.527344 733.144531 463.644531 C 734.769531 461.527344 736.242188 459.980469 737.546875 459.007813 C 738.71875 458.121094 739.65625 457.675781 740.359375 457.675781 C 740.675781 457.675781 740.953125 457.808594 741.203125 458.0625 C 741.515625 458.378906 741.671875 458.765625 741.671875 459.21875 C 741.671875 460.4375 741.035156 461.996094 739.757813 463.902344 C 738.425781 465.863281 736.164063 468.238281 732.976563 471.011719 C 731.191406 472.558594 729.578125 473.773438 728.148438 474.660156 C 727.960938 475.035156 727.441406 476.128906 726.578125 477.925781 C 728.371094 475.992188 729.785156 474.660156 730.828125 473.933594 C 731.503906 473.472656 732.414063 472.996094 733.554688 472.492188 C 734.324219 472.164063 734.886719 472.003906 735.226563 472.003906 C 735.414063 472.003906 735.578125 472.078125 735.722656 472.214844 C 735.878906 472.347656 735.953125 472.515625 735.953125 472.726563 C 735.953125 473.207031 735.636719 473.53125 734.992188 473.714844 C 733.898438 474.046875 732.785156 474.589844 731.644531 475.347656 Z M 729.820313 471.648438 C 732.164063 470.105469 734.355469 468.140625 736.382813 465.753906 C 737.402344 464.566406 738.214844 463.425781 738.828125 462.328125 C 739.261719 461.550781 739.472656 461.003906 739.472656 460.671875 C 739.472656 460.339844 739.328125 460.179688 739.027344 460.179688 C 738.222656 460.179688 736.84375 461.410156 734.882813 463.863281 C 733.261719 465.90625 731.578125 468.507813 729.820313 471.648438 Z M 744.089844 471.648438 C 744.328125 471.648438 744.527344 471.746094 744.6875 471.929688 C 744.796875 472.089844 744.855469 472.242188 744.855469 472.40625 C 744.855469 472.660156 744.652344 473.089844 744.234375 473.695313 C 742.753906 475.992188 741.691406 477.890625 741.070313 479.378906 C 740.394531 480.910156 739.804688 482.484375 739.289063 484.101563 C 739.0625 484.820313 738.703125 485.179688 738.222656 485.179688 C 737.933594 485.179688 737.703125 485.0625 737.53125 484.839844 C 737.378906 484.652344 737.296875 484.445313 737.296875 484.234375 C 737.296875 483.800781 737.753906 482.378906 738.664063 479.941406 C 739.386719 478.023438 740.535156 475.898438 742.140625 473.585938 C 742.652344 472.820313 743.039063 472.316406 743.296875 472.058594 C 743.554688 471.789063 743.816406 471.648438 744.089844 471.648438 Z M 748.152344 463.695313 C 748.796875 463.695313 749.121094 464.023438 749.121094 464.683594 C 749.121094 465.285156 748.804688 465.957031 748.175781 466.683594 C 747.574219 467.386719 746.996094 467.738281 746.4375 467.738281 C 746.164063 467.738281 745.949219 467.636719 745.773438 467.4375 C 745.605469 467.253906 745.515625 467.019531 745.515625 466.753906 C 745.515625 466.0625 745.898438 465.332031 746.652344 464.554688 C 747.203125 463.980469 747.714844 463.695313 748.152344 463.695313 Z M 748.261719 477.171875 C 748.445313 477.003906 748.628906 476.832031 748.796875 476.660156 C 751.777344 473.730469 753.769531 472.265625 754.78125 472.265625 C 755.339844 472.265625 755.617188 472.578125 755.617188 473.1875 C 755.617188 473.621094 755.367188 474.128906 754.871094 474.714844 C 752.144531 477.90625 750.78125 480.714844 750.78125 483.140625 C 750.78125 483.933594 750.996094 484.679688 751.425781 485.398438 C 751.621094 485.726563 751.726563 485.984375 751.726563 486.175781 C 751.726563 486.34375 751.640625 486.503906 751.472656 486.664063 C 751.28125 486.863281 751.0625 486.964844 750.804688 486.964844 C 750.226563 486.964844 749.734375 486.59375 749.328125 485.851563 C 748.953125 485.148438 748.761719 484.300781 748.761719 483.296875 C 748.761719 481.363281 749.480469 479.222656 750.914063 476.878906 C 748.980469 478.128906 747.179688 480.332031 745.507813 483.488281 C 745.078125 484.253906 744.617188 484.628906 744.132813 484.628906 C 743.882813 484.628906 743.683594 484.542969 743.523438 484.371094 C 743.328125 484.167969 743.222656 483.910156 743.222656 483.597656 C 743.222656 482.832031 744.101563 480.796875 745.867188 477.523438 C 746.8125 475.753906 747.558594 474.464844 748.101563 473.664063 C 748.652344 472.878906 749.113281 472.484375 749.496094 472.484375 C 749.691406 472.484375 749.867188 472.578125 750.039063 472.742188 C 750.242188 472.945313 750.34375 473.175781 750.34375 473.429688 C 750.34375 473.746094 750.136719 474.203125 749.722656 474.785156 C 749.121094 475.664063 748.636719 476.460938 748.261719 477.171875 Z M 748.261719 477.171875 "/>
</g>
</g>
</svg>
